<?xml version="1.0" encoding="UTF-8"?>
<svg xmlns="http://www.w3.org/2000/svg" xmlns:xlink="http://www.w3.org/1999/xlink" width="175pt" height="175pt" viewBox="0 0 175 175" version="1.1">
<g id="surface1">
<path style="fill:none;stroke-width:39.375;stroke-linecap:butt;stroke-linejoin:miter;stroke:rgb(0%,0%,0%);stroke-opacity:1;stroke-miterlimit:1;" d="M 1722.5 876.5625 C 1722.5 410.585938 1344.726562 32.8125 878.75 32.8125 C 412.773438 32.8125 35 410.585938 35 876.5625 C 35 1342.539062 412.773438 1720.3125 878.75 1720.3125 C 1344.726562 1720.3125 1722.5 1342.539062 1722.5 876.5625 " transform="matrix(0.1,0,0,-0.1,0,175)"/>
<path style="fill:none;stroke-width:39.375;stroke-linecap:butt;stroke-linejoin:miter;stroke:rgb(0%,0%,0%);stroke-opacity:1;stroke-miterlimit:1;" d="M 233.359375 344.414062 L 408.359375 503.476562 L 308.945312 801.757812 L 607.1875 1100.039062 L 706.640625 1000.585938 L 507.773438 801.757812 L 607.1875 702.34375 L 806.054688 901.171875 L 905.46875 801.757812 L 706.640625 602.890625 L 806.054688 503.476562 L 1004.882812 702.34375 L 1104.296875 602.890625 L 806.054688 304.648438 L 507.773438 404.0625 L 336.757812 241.015625 Z M 233.359375 344.414062 " transform="matrix(0.1,0,0,-0.1,0,175)"/>
<path style="fill:none;stroke-width:39.375;stroke-linecap:butt;stroke-linejoin:miter;stroke:rgb(0%,0%,0%);stroke-opacity:1;stroke-miterlimit:1;" d="M 798.164062 1097.773438 L 897.578125 998.359375 L 1096.445312 1197.1875 L 1195.859375 1097.773438 L 997.03125 898.90625 L 1096.445312 799.492188 L 1295.273438 998.359375 L 1394.6875 898.90625 L 1494.140625 998.359375 L 1394.6875 1296.601562 L 1517.96875 1427.851562 L 1430.507812 1523.28125 L 1295.273438 1396.015625 L 997.03125 1495.46875 L 897.578125 1396.015625 L 997.03125 1296.601562 L 897.578125 1197.1875 Z M 798.164062 1097.773438 " transform="matrix(0.1,0,0,-0.1,0,175)"/>
</g>
</svg>
