<?xml version="1.0" encoding="UTF-8" standalone="no"?>
<!-- Created with Inkscape (http://www.inkscape.org/) -->

<svg
   xmlns:dc="http://purl.org/dc/elements/1.1/"
   xmlns:cc="http://creativecommons.org/ns#"
   xmlns:rdf="http://www.w3.org/1999/02/22-rdf-syntax-ns#"
   xmlns:svg="http://www.w3.org/2000/svg"
   xmlns="http://www.w3.org/2000/svg"
   xmlns:sodipodi="http://sodipodi.sourceforge.net/DTD/sodipodi-0.dtd"
   xmlns:inkscape="http://www.inkscape.org/namespaces/inkscape"
   width="43.299522mm"
   height="8.0107203mm"
   viewBox="0 0 43.299522 8.0107203"
   version="1.1"
   id="svg8"
   inkscape:version="0.92.2 (5c3e80d, 2017-08-06)"
   sodipodi:docname="eegsim.svg">
  <defs
     id="defs2" />
  <sodipodi:namedview
     id="base"
     pagecolor="#ffffff"
     bordercolor="#666666"
     borderopacity="1.0"
     inkscape:pageopacity="0.0"
     inkscape:pageshadow="2"
     inkscape:zoom="1.4420867"
     inkscape:cx="81.825869"
     inkscape:cy="15.138369"
     inkscape:document-units="mm"
     inkscape:current-layer="layer1"
     showgrid="false"
     fit-margin-left="0.1"
     fit-margin-top="0.1"
     fit-margin-right="0.1"
     fit-margin-bottom="0.1"
     inkscape:window-width="715"
     inkscape:window-height="841"
     inkscape:window-x="724"
     inkscape:window-y="16"
     inkscape:window-maximized="0" />
  <metadata
     id="metadata5">
    <rdf:RDF>
      <cc:Work
         rdf:about="">
        <dc:format>image/svg+xml</dc:format>
        <dc:type
           rdf:resource="http://purl.org/dc/dcmitype/StillImage" />
        <dc:title></dc:title>
      </cc:Work>
    </rdf:RDF>
  </metadata>
  <g
     inkscape:label="Layer 1"
     inkscape:groupmode="layer"
     id="layer1"
     transform="translate(-40.961309,-89.744741)">
    <text
       xml:space="preserve"
       style="font-style:normal;font-variant:normal;font-weight:normal;font-stretch:normal;font-size:3.52777767px;line-height:1.25;font-family:Arial;-inkscape-font-specification:'Arial, Normal';font-variant-ligatures:normal;font-variant-caps:normal;font-variant-numeric:normal;text-align:start;letter-spacing:0px;word-spacing:0px;writing-mode:lr-tb;text-anchor:start;fill:#000000;fill-opacity:1;stroke:none;stroke-width:0.26458332"
       x="40.821426"
       y="100.45238"
       id="text4506"><tspan
         sodipodi:role="line"
         id="tspan4504"
         x="40.821426"
         y="103.63004"
         style="stroke-width:0.26458332" /></text>
    <text
       xml:space="preserve"
       style="font-style:normal;font-variant:normal;font-weight:normal;font-stretch:normal;font-size:3.52777767px;line-height:1.25;font-family:Arial;-inkscape-font-specification:'Arial, Normal';font-variant-ligatures:normal;font-variant-caps:normal;font-variant-numeric:normal;text-align:start;letter-spacing:0px;word-spacing:0px;writing-mode:lr-tb;text-anchor:start;fill:#000000;fill-opacity:1;stroke:none;stroke-width:0.26458332"
       x="40.515606"
       y="99.228897"
       id="text4510"><tspan
         sodipodi:role="line"
         id="tspan4508"
         x="40.515606"
         y="102.40656"
         style="stroke-width:0.26458332" /></text>
    <g
       aria-label="EEGSIM"
       style="font-style:normal;font-variant:normal;font-weight:normal;font-stretch:normal;font-size:3.52777767px;line-height:1.25;font-family:Arial;-inkscape-font-specification:'Arial, Normal';font-variant-ligatures:normal;font-variant-caps:normal;font-variant-numeric:normal;text-align:start;letter-spacing:0px;word-spacing:0px;writing-mode:lr-tb;text-anchor:start;fill:#000000;fill-opacity:1;stroke:none;stroke-width:0.26458332"
       id="text4514">
      <path
         style="font-style:normal;font-variant:normal;font-weight:normal;font-stretch:normal;font-size:11.28888893px;font-family:'Eras Bold ITC';-inkscape-font-specification:'Eras Bold ITC, Normal';font-variant-ligatures:normal;font-variant-caps:normal;font-variant-numeric:normal;font-feature-settings:normal;text-align:start;writing-mode:lr-tb;text-anchor:start;stroke-width:0.26458332"
         d="m 60.685547,89.845703 c -1.102431,0 -2.002966,0.18572 -2.701172,0.560547 -0.694531,0.371151 -1.228457,0.876215 -1.599609,1.515625 -0.371152,0.63941 -0.556641,1.332147 -0.556641,2.078125 0,0.451996 0.06911,0.889901 0.205078,1.3125 0.139641,0.422599 0.336285,0.788976 0.589844,1.097656 0.253559,0.308681 0.568764,0.552358 0.947265,0.732422 0.382176,0.180063 0.813528,0.311733 1.294922,0.392578 0.481395,0.08084 0.972888,0.121094 1.472657,0.121094 0.305005,0 0.651489,-0.01552 1.041015,-0.04492 0.389526,-0.02573 0.72244,-0.057 0.998047,-0.09375 0.279283,-0.03307 0.630136,-0.08885 1.052735,-0.166016 0.01102,-0.47037 0.04012,-1.165523 0.08789,-2.08789 0.05145,-0.922367 0.100664,-1.635229 0.148438,-2.138672 -0.440972,0.0074 -1.051027,0.0098 -1.830078,0.0098 -0.455672,0 -0.934057,-0.0024 -1.4375,-0.0098 -10e-7,0.23886 -0.0044,0.426765 -0.01172,0.566406 -0.0074,0.135967 -0.01196,0.240958 -0.01563,0.314453 l -0.03906,0.677735 0.583985,-0.0039 c 0.0441,-1e-6 0.184968,0.0046 0.423828,0.01562 l -0.06055,1.195313 c -0.389525,0.09554 -0.747164,0.144531 -1.074219,0.144531 -0.3932,0 -0.750607,-0.07808 -1.070312,-0.232422 -0.319705,-0.15434 -0.552228,-0.377893 -0.699219,-0.671875 -0.146991,-0.297656 -0.220703,-0.63517 -0.220703,-1.013671 0,-0.371153 0.06474,-0.724191 0.193359,-1.058594 0.128617,-0.334404 0.320892,-0.620515 0.578125,-0.859375 0.260909,-0.242535 0.571513,-0.421239 0.931641,-0.535157 0.360127,-0.117592 0.742259,-0.175781 1.146484,-0.175781 0.15434,0 0.328675,0.009 0.523438,0.02734 0.198438,0.01837 0.406235,0.04747 0.623047,0.08789 0.220486,0.03675 0.412528,0.07918 0.574218,0.126953 0.165364,0.0441 0.379948,0.109071 0.644532,0.197265 -0.04777,-0.657783 -0.07227,-1.254499 -0.07227,-1.791015 -0.977488,-0.194764 -1.8671,-0.291016 -2.671875,-0.291016 z m 7.066406,0 c -0.31603,0 -0.624219,0.02473 -0.921875,0.07617 -0.297657,0.04777 -0.576983,0.139425 -0.83789,0.275391 -0.260909,0.135966 -0.468938,0.296961 -0.626954,0.484375 -0.158014,0.187412 -0.278529,0.39061 -0.359375,0.607421 -0.07717,0.213137 -0.115234,0.432089 -0.115234,0.65625 0,0.187413 0.02449,0.366117 0.07227,0.535157 0.05145,0.165364 0.129759,0.328544 0.236328,0.490234 0.110242,0.16169 0.262268,0.336024 0.457031,0.523438 0.09554,0.09187 0.265278,0.239525 0.507812,0.445312 l 1.035157,0.904297 c 0.09554,0.08452 0.169256,0.164786 0.220703,0.238281 0.05145,0.06982 0.0871,0.132613 0.105469,0.191407 0.01837,0.05512 0.02734,0.115261 0.02734,0.177734 0,0.183738 -0.09602,0.322425 -0.287109,0.417969 -0.187413,0.09187 -0.440061,0.138671 -0.759766,0.138671 -0.242534,10e-7 -0.526229,-0.03565 -0.849609,-0.105468 -0.319705,-0.0735 -0.684129,-0.201028 -1.095703,-0.384766 0.06247,0.47037 0.116289,1.09618 0.164062,1.878906 0.907668,0.172714 1.658594,0.259766 2.253907,0.259766 0.38585,0 0.752228,-0.04002 1.097656,-0.117188 0.349103,-0.07717 0.668678,-0.211255 0.958984,-0.402343 0.290307,-0.194763 0.51386,-0.440625 0.671875,-0.738281 0.158015,-0.301331 0.238281,-0.616537 0.238281,-0.947266 0,-0.128617 -0.01334,-0.249132 -0.03906,-0.359375 -0.02572,-0.113918 -0.06597,-0.225695 -0.121094,-0.335938 -0.05145,-0.110243 -0.127343,-0.23099 -0.226562,-0.363281 C 69.459377,94.260284 69.343,94.126199 69.207034,93.990232 69.071068,93.854266 68.943768,93.73812 68.826175,93.642576 l -0.396484,-0.314453 c -0.282958,-0.220486 -0.490756,-0.38585 -0.623047,-0.496094 -0.132292,-0.113917 -0.239468,-0.216724 -0.320313,-0.308593 -0.08084,-0.09555 -0.136616,-0.178227 -0.166016,-0.248047 -0.0294,-0.06982 -0.04297,-0.141349 -0.04297,-0.214844 0,-0.158015 0.09384,-0.289917 0.28125,-0.396485 0.191088,-0.106568 0.430165,-0.160156 0.716797,-0.160156 0.202112,0 0.44142,0.02691 0.720703,0.08203 0.279282,0.05145 0.589655,0.145283 0.927734,0.28125 -0.05512,-0.529167 -0.09077,-0.89796 -0.105469,-1.107422 -0.0147,-0.213137 -0.02804,-0.44566 -0.03906,-0.699219 -0.731279,-0.143316 -1.406308,-0.214844 -2.027344,-0.214844 z m -26.304687,0.142578 0.0059,0.484375 c 0,0.345428 -0.02231,1.04932 -0.06641,2.111328 -0.04042,1.058334 -0.08285,1.907465 -0.126953,2.546875 -0.04042,0.63941 -0.10735,1.43277 -0.199219,2.38086 l 0.783203,-0.0059 2.425781,-0.0039 c 1.069358,0 2.052575,0.0024 2.949219,0.0098 0.0294,-0.580614 0.06527,-1.141681 0.109375,-1.685547 -0.396875,0.02573 -0.678617,0.0393 -0.847656,0.04297 l -1.142578,0.02734 c -0.587964,0.01103 -0.974696,0.01758 -1.16211,0.01758 h -0.634765 l 0.06641,-1.339843 c 0.628385,-0.02573 1.196007,-0.03906 1.703125,-0.03906 0.341753,0 0.831061,0.0044 1.466797,0.01172 0.03307,-0.650434 0.06872,-1.21127 0.105468,-1.681641 -0.889293,0.02572 -1.436791,0.03906 -1.642578,0.03906 -0.576938,0 -1.082002,-0.0066 -1.515625,-0.01758 L 43.789062,91.625 c 0.393201,-0.0147 0.681496,-0.02148 0.865235,-0.02148 0.187413,-0.0037 0.547005,-0.0059 1.076172,-0.0059 0.481394,0 1.075925,0.01552 1.785156,0.04492 0,-0.132291 0.0044,-0.263961 0.01172,-0.392578 l 0.0332,-0.599609 c 0.01471,-0.275606 0.02368,-0.436369 0.02734,-0.480469 l 0.01172,-0.181641 C 46.732364,89.995635 45.729253,90 44.59375,90 c -1.231047,0 -2.279239,-0.0044 -3.146484,-0.01172 z m 7.453125,0 0.0039,0.484375 c 0,0.345428 -0.02035,1.04932 -0.06445,2.111328 -0.04042,1.058334 -0.08285,1.907465 -0.126953,2.546875 -0.04042,0.63941 -0.10735,1.43277 -0.199219,2.38086 l 0.783203,-0.0059 2.425781,-0.0039 c 1.069358,0 2.050623,0.0024 2.947266,0.0098 0.0294,-0.580614 0.06723,-1.141681 0.111328,-1.685547 -0.396875,0.02573 -0.68057,0.0393 -0.849609,0.04297 l -1.140625,0.02734 c -0.587963,0.01103 -0.974696,0.01758 -1.16211,0.01758 h -0.634765 l 0.06641,-1.339843 c 0.628386,-0.02573 1.196007,-0.03906 1.703125,-0.03906 0.341753,0 0.831062,0.0044 1.466797,0.01172 0.03307,-0.650434 0.06677,-1.21127 0.103515,-1.681641 -0.889294,0.02572 -1.436791,0.03906 -1.642578,0.03906 -0.576938,0 -1.082002,-0.0066 -1.515625,-0.01758 L 51.242188,91.625 c 0.3932,-0.0147 0.681496,-0.02148 0.865234,-0.02148 0.187413,-0.0037 0.545052,-0.0059 1.074219,-0.0059 0.481394,0 1.077878,0.01552 1.787109,0.04492 0,-0.132291 0.0044,-0.263961 0.01172,-0.392578 l 0.03125,-0.599609 c 0.01471,-0.275606 0.02563,-0.436369 0.0293,-0.480469 l 0.0098,-0.181641 C 54.183536,89.995635 53.182378,90 52.046875,90 c -1.231047,0 -2.279238,-0.0044 -3.146484,-0.01172 z m 22.466797,0 0.0059,0.710938 c 0,1.591174 -0.107176,3.86166 -0.320313,6.8125 0.683508,-0.0073 1.134983,-0.0098 1.355469,-0.0098 l 1.130859,0.0098 c 0,-0.63206 0.01116,-1.394141 0.0332,-2.28711 0.02205,-0.896644 0.05793,-1.859737 0.109375,-2.888671 0.04042,-0.738629 0.09401,-1.520833 0.160156,-2.347657 C 73.15094,89.995635 72.755469,90 72.65625,90 c -0.216811,0 -0.645978,-0.0044 -1.289062,-0.01172 z m 4.044921,0 -0.169921,2.546875 -0.341797,3.863282 -0.138672,1.113281 c 0.470371,-0.0073 0.801099,-0.0098 0.992187,-0.0098 0.139642,0 0.463585,0.0024 0.970703,0.0098 l 0.01758,-0.705078 0.18164,-3.13086 0.136719,-1.527343 c 0.04043,0.23151 0.06952,0.394458 0.08789,0.486328 0.01837,0.09187 0.03608,0.167995 0.05078,0.230468 l 0.396484,1.615235 0.677735,3.03125 c 0.47037,-0.0073 0.819039,-0.0098 1.046874,-0.0098 0.180064,0 0.510562,0.0024 0.988282,0.0098 l 1.035156,-3.13086 0.722656,-2.242187 c 0.0073,0.268258 0.01172,0.476288 0.01172,0.626953 0,0.345429 -0.02231,1.140972 -0.06641,2.386719 -0.0441,1.242071 -0.08193,2.028645 -0.111328,2.359375 0.411574,-0.0073 0.760011,-0.0098 1.042968,-0.0098 0.194763,0 0.534462,0.0024 1.019532,0.0098 -0.0074,-0.356453 -0.01172,-0.602316 -0.01172,-0.738281 0,-0.65411 0.02449,-1.851911 0.07227,-3.59375 0.02205,-0.889295 0.0669,-1.953009 0.136718,-3.191407 C 83.520746,89.995635 83.022237,90 82.662109,90 c -0.529166,0 -1.069879,-0.0044 -1.621093,-0.01172 -0.09187,0.338079 -0.165584,0.590495 -0.220704,0.75586 -0.05145,0.16169 -0.176562,0.505989 -0.375,1.035156 -0.198437,0.529167 -0.363801,1.000767 -0.496093,1.416015 -0.132292,0.41525 -0.279717,0.911343 -0.441407,1.488282 -0.158015,-0.841522 -0.276577,-1.433868 -0.357421,-1.779297 -0.07717,-0.349103 -0.182162,-0.76033 -0.314453,-1.234375 C 78.707321,91.192201 78.626823,90.872627 78.59375,90.710937 78.56068,90.545572 78.52043,90.304311 78.472656,89.98828 77.814873,89.995635 77.325564,90 77.005859,90 c -0.38585,0 -0.917592,-0.0044 -1.59375,-0.01172 z"
         id="path4526"
         inkscape:connector-curvature="0" />
    </g>
  </g>
</svg>
