<?xml version="1.0" encoding="UTF-8"?>
<svg xmlns="http://www.w3.org/2000/svg" xmlns:xlink="http://www.w3.org/1999/xlink" width="1552pt" height="209pt" viewBox="0 0 1552 209" version="1.1">
<g id="surface1">
<path style=" stroke:none;fill-rule:nonzero;fill:rgb(0%,0%,0%);fill-opacity:1;" d="M 114.5 0.984375 C 86.199219 3.53125 62.15625 14 42.199219 32.464844 C 4.8125 67.0625 -1.480469 121.101562 26.996094 163 C 36.320312 176.71875 53.699219 191.984375 69 199.898438 C 75.398438 203.207031 89.84375 209 91.699219 209 C 92.03125 209 96.398438 205.058594 101.398438 200.25 C 106.398438 195.441406 113.226562 188.910156 116.550781 185.75 L 122.601562 180 L 138.351562 194 C 147.050781 201.734375 154.277344 208 154.5 208 C 154.71875 208 158.199219 206.8125 162.199219 205.375 C 197.898438 192.53125 223.480469 165.488281 233.214844 130.300781 C 236.121094 119.800781 236.367188 93.925781 233.660156 84 C 227.847656 62.699219 219.085938 47.984375 203.199219 32.835938 C 198.898438 28.734375 192.609375 23.46875 189.398438 21.285156 C 167.792969 6.582031 139 -1.222656 114.5 0.984375 Z M 120.789062 11.800781 C 121.042969 12.539062 120.199219 13 118.601562 13 C 116.699219 13 116 13.539062 116 15 C 116 16.441406 116.699219 17 118.5 17 C 119.898438 17 121 17.441406 121 18 C 121 18.550781 120.101562 19 119 19 C 116.121094 19 116.300781 22.757812 119.199219 23.183594 C 123.285156 23.785156 122.5 26 118.199219 26 L 114.199219 26 L 113.851562 18.5 C 113.644531 14.101562 113.914062 10.816406 114.5 10.558594 C 116.398438 9.714844 120.347656 10.496094 120.789062 11.800781 Z M 131 11.5 C 131 12.300781 130.300781 13 129.5 13 C 128.324219 13 128 14.398438 128 19.5 C 128 24.199219 127.640625 26 126.699219 26 C 125.71875 26 125.496094 24.398438 125.800781 19.5 C 126.136719 14 125.953125 13 124.601562 13 C 123.699219 13 123 12.34375 123 11.5 C 123 10.410156 124.101562 10 127 10 C 129.898438 10 131 10.410156 131 11.5 Z M 110.296875 12.300781 C 111.476562 15.398438 112.191406 27 111.199219 27 C 109.847656 27 109.289062 25 108.460938 17.199219 C 108.046875 13.300781 108.171875 11 108.800781 11 C 109.339844 11 110.027344 11.601562 110.296875 12.300781 Z M 135.492188 18.300781 C 134.726562 26.199219 134.359375 27.347656 132.898438 26.429688 C 132.324219 26.066406 132.171875 23.800781 132.535156 21.101562 C 133.617188 13.101562 134.171875 11 135.199219 11 C 135.855469 11 135.957031 13.5 135.492188 18.300781 Z M 103.398438 12.640625 C 105.785156 13.554688 105.5 16.324219 103.101562 15.5625 C 99.226562 14.335938 98.363281 20.300781 101.839844 24.300781 C 103.3125 26 103.46875 26.003906 104.652344 24.398438 C 106.324219 22.125 108.328125 23.5 106.984375 26 C 105.292969 29.148438 101.273438 28.5 98.945312 24.699219 C 96.429688 20.601562 96.453125 16.546875 99 14 C 101.199219 11.800781 101.199219 11.800781 103.398438 12.640625 Z M 144.800781 12.628906 C 147.648438 13.394531 146.699219 15 143.398438 15 C 140.398438 15 140.082031 17.941406 143 18.703125 C 145.839844 19.445312 145.5 21 142.5 21 C 139.398438 21 138.992188 24.507812 142 25.296875 C 145.5 26.214844 144.398438 28.359375 140.800781 27.640625 C 139 27.28125 137.425781 26.804688 137.199219 26.550781 C 136.980469 26.304688 137.378906 22.898438 138.085938 19 C 139.410156 11.699219 139.839844 11.289062 144.800781 12.628906 Z M 154.398438 14.582031 C 155.3125 14.933594 156 16.101562 156 17.300781 C 156 18.898438 155.714844 19.113281 154.800781 18.199219 C 153.300781 16.699219 151 16.640625 151 18.101562 C 151 18.695312 151.867188 20.300781 152.890625 21.601562 C 156.105469 25.679688 153.300781 30.800781 148.5 29.617188 C 146.800781 29.195312 146 28.296875 146 26.800781 C 146 25.101562 146.273438 24.871094 147.199219 25.800781 C 148.601562 27.199219 152 27.484375 152 26.199219 C 152 25.695312 151.144531 24.199219 150.050781 22.800781 C 147.636719 19.699219 147.492188 17.691406 149.542969 15.601562 C 151.304688 13.800781 152 13.65625 154.398438 14.582031 Z M 91.5 16.617188 C 95.5 18.164062 97.507812 27.390625 94.5 30.398438 C 92.289062 32.609375 91.300781 32.410156 87.898438 29.058594 C 85.667969 26.859375 85 25.300781 85 22.300781 C 85 16.898438 87.21875 14.960938 91.5 16.617188 Z M 170.441406 21.601562 C 172.527344 23.714844 172.390625 26.800781 170.03125 30.699219 C 167.308594 35.199219 164.898438 36.359375 162.199219 34.46875 C 159.769531 32.769531 159.332031 29.199219 161.128906 25.699219 C 164.058594 20 167.402344 18.527344 170.441406 21.601562 Z M 81 22 C 81 22.550781 80.101562 23 79 23 C 75.601562 23 76.800781 25.734375 80.5 26.425781 C 85.398438 27.34375 87.414062 31.410156 84.453125 34.398438 C 82.46875 36.398438 79 36.464844 79 34.5 C 79 33.675781 79.898438 33 81 33 C 82.101562 33 83 32.371094 83 31.601562 C 83 30.09375 80.898438 29 78 29 C 75.660156 29 73.664062 25.601562 74.476562 23 C 74.898438 21.644531 76.050781 21 78.050781 21 C 79.648438 21 81 21.457031 81 22 Z M 183 29 C 183 30.425781 181.601562 30.761719 179.898438 29.738281 C 178.398438 28.839844 177.738281 28.863281 176.75 29.851562 C 175.75 30.851562 175.851562 31.359375 177.25 32.398438 C 178.25 33.144531 179 34.171875 179 34.800781 C 179 36.238281 178.398438 36.273438 176 34.976562 C 174.558594 34.195312 173.875 34.5 172.574219 36.5 C 171.015625 38.898438 169 39.859375 169 38.199219 C 169 37.707031 170.808594 34.5 173 31.101562 L 177 24.898438 L 180 26.648438 C 181.699219 27.640625 183 28.660156 183 29 Z M 67.480469 28 C 67.765625 28.492188 67 29.605469 65.800781 30.449219 C 64.101562 31.648438 63.871094 32.273438 64.800781 33.199219 C 65.746094 34.148438 66.398438 34.152344 67.898438 33.21875 C 70.5 31.597656 71.972656 33.777344 69.5 35.585938 C 67.84375 36.796875 67.832031 37.101562 69.339844 39.398438 C 71.304688 42.398438 71.367188 43 69.699219 43 C 69.03125 43 66.75 40.300781 64.550781 36.898438 L 60.601562 30.800781 L 63.101562 28.894531 C 65.898438 26.757812 66.671875 26.601562 67.480469 28 Z M 59.898438 36.460938 C 63.601562 38.371094 66.453125 44.269531 64.996094 47 C 63.273438 50.238281 58.714844 49.5 55.101562 45.398438 C 51.667969 41.5 51.082031 37.613281 53.699219 36.101562 C 56.082031 34.726562 56.601562 34.753906 59.898438 36.460938 Z M 193.296875 36.601562 C 194.007812 37.316406 186.800781 50.964844 185.699219 50.984375 C 185.203125 50.992188 185.035156 50.101562 185.320312 49 C 185.917969 46.699219 183.699219 44.503906 181.601562 45.316406 C 180.800781 45.628906 179.835938 45.480469 179.535156 45 C 178.964844 44.085938 189.800781 36 191.601562 36 C 192.199219 36 192.972656 36.273438 193.296875 36.601562 Z M 102.5 40 L 105.300781 41.101562 L 102.449219 44.050781 C 100.648438 45.914062 98.199219 47.226562 95.800781 47.613281 C 91.800781 48.257812 91.058594 50.71875 95 50.265625 C 96.898438 50.046875 97.082031 50.261719 96.050781 51.5 C 95.171875 52.554688 94.25 52.703125 92.949219 52 C 91.46875 51.199219 90.972656 51.398438 90.46875 53 C 89.683594 55.5 88.050781 55.691406 87.90625 53.300781 C 87.804688 51.601562 87.773438 51.601562 87.296875 53.300781 C 86.710938 55.398438 86.246094 55.449219 84.398438 53.601562 C 83.300781 52.5 83.269531 52.082031 84.25 51.648438 C 84.957031 51.339844 84.199219 51.359375 82.5 51.699219 L 79.5 52.300781 L 81.539062 50 C 84.109375 47.101562 98.054688 37.894531 99 38.472656 C 99.375 38.703125 101 39.410156 102.5 40 Z M 151.101562 42.125 C 158.101562 47.523438 163 52.121094 163 53.300781 C 163 53.796875 162.351562 53.660156 161.550781 53 C 160.75 52.339844 159.628906 52.089844 159.050781 52.449219 C 158.488281 52.796875 156.949219 52.515625 155.75 51.851562 C 154.476562 51.144531 152.351562 50.6875 150.851562 50.800781 C 148.6875 50.964844 147.5 50.050781 144.398438 45.851562 C 140.785156 40.949219 140.691406 40.632812 142.5 39.347656 C 145.101562 37.5 145.101562 37.5 151.101562 42.125 Z M 90.5 41.632812 C 88.269531 43.121094 83.800781 46.648438 80.398438 49.605469 C 74.398438 54.820312 71.925781 55.820312 69.199219 54.125 C 67.363281 52.984375 73.398438 48.5625 84 43.277344 C 93.699219 38.441406 96.257812 37.792969 90.5 41.632812 Z M 160.699219 43.136719 C 166.699219 45.980469 177.566406 53.773438 176.699219 54.613281 C 176.484375 54.824219 173.601562 54.519531 170.398438 53.949219 C 165.300781 53.042969 163.753906 52.179688 159 47.601562 C 156 44.710938 152.363281 41.503906 151 40.550781 L 148.5 38.800781 L 151.5 39.5 C 153.144531 39.882812 157.300781 41.527344 160.699219 43.136719 Z M 144.132812 47.300781 C 147.105469 51.398438 146.988281 54.460938 143.898438 53.492188 C 142.800781 53.148438 142 53.34375 142 53.949219 C 142 54.515625 140.449219 55 138.648438 55 C 135.617188 55 135.148438 54.601562 133.710938 50.800781 C 131.175781 44.101562 131.214844 43.859375 135 42.507812 C 139.078125 41.050781 139.933594 41.5 144.132812 47.300781 Z M 113.601562 43.300781 C 113.8125 43.511719 113.734375 44.398438 113.429688 45.199219 C 112.894531 46.601562 103.269531 48.570312 102.199219 47.5 C 101.929688 47.230469 102.808594 45.800781 104.101562 44.398438 C 106.035156 42.304688 107.148438 41.90625 109.851562 42.351562 C 111.648438 42.644531 113.386719 43.085938 113.601562 43.300781 Z M 198.488281 47.300781 C 196.402344 52.398438 196.558594 52.597656 200.199219 49.511719 C 202.199219 47.816406 203.550781 47.25 203.804688 48 C 204.179688 49.113281 194.300781 58.886719 192.699219 58.984375 C 191.53125 59.054688 191.847656 56.601562 193.527344 52.601562 C 195.328125 48.300781 194.617188 48.03125 190.898438 51.605469 C 189.398438 53.046875 187.925781 53.753906 187.582031 53.199219 C 186.71875 51.800781 197.953125 41.554688 199.101562 42.699219 C 199.609375 43.210938 199.347656 45.199219 198.488281 47.300781 Z M 122 49.5 L 122 55 L 116.300781 55 C 111.898438 55 110.875 54.726562 111.800781 53.800781 C 112.46875 53.132812 113 51.800781 113 50.800781 C 113 49.800781 113.46875 49 114.050781 49 C 114.648438 49 114.835938 48.570312 114.480469 48 C 113.105469 45.785156 114.898438 44 118.5 44 L 122 44 Z M 130 44.25 C 130 44.386719 130.878906 46.800781 131.949219 49.601562 L 133.898438 54.699219 L 128.449219 54.648438 L 123 54.601562 L 123 44 L 126.5 44 C 128.398438 44 130 44.113281 130 44.25 Z M 51 51.71875 C 55.300781 55.046875 56.980469 57.839844 54.398438 57.363281 C 53.90625 57.273438 51.699219 56.90625 49.5 56.550781 L 45.5 55.898438 L 48.898438 58.8125 C 54.148438 63.308594 50.898438 63.328125 44.898438 58.835938 C 38.101562 53.746094 37.238281 51.449219 42.5 52.429688 C 44.5 52.800781 46.855469 53.34375 47.800781 53.648438 C 48.726562 53.949219 48 52.96875 46.199219 51.488281 C 42.800781 48.695312 41.890625 46.363281 44.601562 47.394531 C 45.46875 47.722656 48.398438 49.703125 51 51.71875 Z M 101.289062 53 C 101.570312 54.101562 101.441406 55.226562 101 55.503906 C 100.03125 56.109375 100.898438 59.824219 102.199219 60.636719 C 102.6875 60.941406 104.003906 60.101562 105.074219 58.800781 C 107.609375 55.71875 107.515625 57 104.566406 65.601562 C 103.195312 69.601562 101.8125 74.398438 101.449219 76.398438 L 100.800781 80 L 92.851562 80 C 85.148438 80 84.933594 79.933594 86.027344 77.898438 C 87.855469 74.5 90.300781 72 91.800781 72 C 92.710938 72 93.023438 71.300781 92.699219 70 C 92.324219 68.5 92.6875 68 94.148438 68 C 95.25 68 95.839844 68.4375 95.5 69 C 95.167969 69.550781 95.550781 70 96.351562 70 C 97.546875 70 97.625 69.300781 96.800781 66 C 96.25 63.800781 95.214844 62 94.5 62 C 93.804688 62 92.945312 61.300781 92.648438 60.5 C 92.28125 59.5 92.75 59 94.050781 59 C 95.148438 59 96 58.5625 96 58 C 96 57.46875 96.699219 57 97.5 57 C 98.300781 57 99 56.53125 99 56 C 99 55.46875 98.300781 55 97.5 55 C 95.699219 55 95.542969 52.347656 97.300781 51.636719 C 99.699219 50.664062 100.789062 51.035156 101.289062 53 Z M 79.699219 54.601562 C 79.378906 54.921875 78.5 54.96875 77.800781 54.699219 C 76.980469 54.382812 77.199219 54.164062 78.398438 54.101562 C 79.398438 54.046875 80.015625 54.285156 79.699219 54.601562 Z M 210 56.300781 C 210 58 199.558594 68.257812 198.699219 67.398438 C 198.324219 67.023438 198.503906 66.101562 199.085938 65.398438 C 200.488281 63.722656 198.5 60.859375 196.199219 61.246094 C 195.398438 61.382812 194.535156 61.03125 194.347656 60.5 C 193.976562 59.4375 207.898438 54.09375 209.300781 54.765625 C 209.707031 54.960938 210 55.601562 210 56.300781 Z M 111.691406 57.699219 C 112.265625 59.207031 112.371094 59.199219 113.550781 57.601562 C 114.40625 56.433594 115.851562 55.992188 118.148438 56.199219 C 121.46875 56.496094 121.5 56.550781 121.449219 61.851562 C 121.417969 65.351562 120.882812 67.597656 119.898438 68.351562 C 119.042969 69.007812 118.550781 70.25 118.75 71.25 C 118.96875 72.351562 118.523438 73 117.550781 73 C 116.558594 73 116 73.898438 116 75.5 C 116 78.769531 117.328125 78.699219 119.835938 75.300781 C 121.898438 72.5 121.898438 72.5 121.949219 74.800781 C 121.988281 76.507812 121.101562 77.476562 118.5 78.570312 C 114.300781 80.335938 102 80.578125 102 78.898438 C 102 78.242188 102.953125 74.5 104.117188 70.601562 C 108.171875 57 110.144531 53.636719 111.691406 57.699219 Z M 89.648438 60.898438 C 87.886719 64.101562 87.1875 64.628906 85.75 63.851562 C 84.75 63.308594 84 62.386719 84 61.699219 C 84 60.101562 87.730469 57.699219 89 58.484375 C 89.570312 58.835938 90 58.648438 90 58.050781 C 90 57.449219 90.386719 57 90.898438 57 C 91.386719 57 90.808594 58.800781 89.648438 60.898438 Z M 127.648438 58.648438 C 127.269531 59.027344 127.414062 59.800781 127.996094 60.5 C 129.507812 62.320312 128.101562 65.019531 125.699219 64.90625 C 124.5 64.847656 124.066406 64.574219 124.75 64.300781 C 125.433594 64.027344 126 62.800781 126 61.601562 C 126 59.5 126.75 58 127.800781 58 C 128.101562 58 128.039062 58.261719 127.648438 58.648438 Z M 41.300781 60.117188 C 44.898438 61.988281 48 65.265625 48 67.199219 C 48 68.1875 46.851562 69.742188 45.449219 70.648438 C 43.089844 72.175781 42.601562 72.164062 38.898438 70.480469 C 34.699219 68.574219 33 66.503906 33 63.300781 C 33 59.324219 36.898438 57.828125 41.300781 60.117188 Z M 180.371094 63 C 180.726562 64.699219 181.433594 66 182 66 C 183.421875 66 183.300781 63.699219 181.800781 62.199219 C 180.886719 61.285156 181.101562 61 182.699219 61 C 185.066406 61 192.378906 68.800781 195.910156 75.101562 L 198.101562 79 L 190.199219 79 C 181.800781 79 181 78.558594 181 73.898438 C 181 72.898438 180.550781 72 180.050781 72 C 179.527344 72 178.828125 71.101562 178.5 70 C 178.160156 68.867188 176.796875 66.699219 175.351562 65 C 173.480469 62.800781 173.160156 61.894531 174.148438 61.601562 C 174.871094 61.386719 176.199219 60.96875 177 60.699219 C 179.53125 59.855469 179.742188 60 180.371094 63 Z M 67 63 C 67 64.15625 65.5625 68.449219 63.800781 72.550781 L 60.601562 80 L 46.898438 80 L 49.953125 74.300781 C 52.789062 69 59 60.832031 59 62.398438 C 59 62.789062 59.800781 62.628906 60.800781 62.042969 C 63.898438 60.222656 67 60.699219 67 63 Z M 215.449219 65.949219 C 216.554688 68.050781 216.683594 69.085938 215.898438 69.546875 C 214.886719 70.140625 213.519531 68.898438 212.773438 66.699219 C 212.617188 66.242188 211.75 66.179688 210.75 66.550781 C 209.351562 67.070312 209.21875 67.601562 210.101562 69.199219 C 210.816406 70.5 210.851562 71.550781 210.199219 72.199219 C 209.53125 72.867188 208.828125 72.5 208.085938 71.101562 C 206.8125 68.699219 206.242188 68.523438 204.101562 69.863281 C 202.828125 70.65625 202.804688 71.050781 203.949219 72.449219 C 204.933594 73.648438 205.015625 74.386719 204.25 75.148438 C 203.492188 75.90625 202.753906 75.351562 201.601562 73.148438 C 200.707031 71.449219 200 69.878906 200 69.601562 C 200 68.878906 211.199219 63.097656 212.699219 63.042969 C 213.351562 63.019531 214.609375 64.351562 215.449219 65.949219 Z M 67.113281 72.101562 C 66.488281 73.898438 66 76.328125 66 77.648438 C 66 79.351562 65.445312 80 64 80 C 61.5625 80 61.554688 80.101562 64.511719 73.398438 C 67.113281 67.5 69.050781 66.53125 67.113281 72.101562 Z M 37.800781 72.652344 C 43.601562 75.125 45.757812 77 42.800781 77 C 40.699219 77 29 71.742188 29 70.800781 C 29 69.375 31.199219 69.839844 37.800781 72.652344 Z M 135.648438 70.648438 C 135.3125 70.988281 135.53125 71.949219 136.101562 72.648438 C 136.988281 73.738281 136.699219 74 134.601562 74 C 131.601562 74 130.976562 71.394531 133.800781 70.648438 C 134.699219 70.410156 135.6875 70.152344 135.898438 70.101562 C 136.140625 70.039062 136.039062 70.261719 135.648438 70.648438 Z M 130.050781 76 C 130.089844 74.800781 130.300781 74.851562 131.101562 76.25 C 131.671875 77.25 132.742188 78 133.601562 78 C 134.398438 78 134.820312 78.46875 134.5 79 C 134.175781 79.542969 131.699219 80 129.101562 80 C 124 80 123 79.148438 123 74.800781 C 123 72.800781 123.09375 72.785156 125 74.496094 C 126.917969 76.222656 127.839844 75.5 126.28125 73.5 C 125.84375 72.941406 126.488281 73.601562 127.75 75 C 129.28125 76.699219 130.015625 77.019531 130.050781 76 Z M 179.828125 76.898438 C 179.363281 79.300781 177.28125 79.355469 176.023438 77 C 175.167969 75.398438 175.199219 74.53125 176.148438 73.351562 C 177.230469 72.007812 177.582031 72.050781 178.75 73.648438 C 179.480469 74.648438 179.976562 76.144531 179.828125 76.898438 Z M 143 76.300781 C 143 78.101562 142.820312 78.226562 142.015625 77 C 140.699219 75 140.691406 72.703125 142 73.496094 C 142.546875 73.824219 143 75.101562 143 76.300781 Z M 218.800781 74.199219 C 220.578125 75.976562 220.300781 80 218.398438 80 C 217.519531 80 217.023438 79.300781 217.199219 78.300781 C 217.359375 77.398438 216.746094 76.433594 215.898438 76.25 C 214.78125 76.003906 214.117188 76.800781 213.6875 78.898438 C 212.992188 82.300781 209.914062 84.417969 207 83.5 C 204.898438 82.839844 203.363281 78.929688 204.484375 77.101562 C 205.433594 75.554688 207 76.800781 207 79.101562 C 207 82.167969 210.234375 81 211.152344 77.601562 C 212.3125 73.300781 216.179688 71.578125 218.800781 74.199219 Z M 29.5 76.101562 C 29.5 76.910156 31.898438 78.324219 35.199219 79.460938 C 43.335938 82.261719 42.898438 84.367188 34.699219 81.878906 C 31 80.757812 28.359375 80.402344 28.148438 81 C 27.960938 81.539062 27.199219 82 26.5 82 C 25.460938 82 25.402344 81.199219 26.21875 78 C 27.183594 74.199219 29.5 72.859375 29.5 76.101562 Z M 174.503906 77 C 175.671875 78.300781 175.878906 79 175.101562 79 C 173.898438 79 171 76.59375 171 75.601562 C 171 74.382812 172.796875 75.101562 174.503906 77 Z M 182.027344 82.101562 C 183.078125 84.011719 185 96.800781 185 101.898438 L 185 106 L 180.050781 106 C 175.148438 106 175.097656 105.96875 174.800781 102.75 L 174.5 99.5 L 172.554688 102.699219 C 170.1875 106.601562 168 106.9375 168 103.398438 C 168 102 167.671875 101.097656 167.25 101.351562 C 166.839844 101.597656 166.386719 100.148438 166.25 98.148438 C 166.03125 94.949219 166.164062 94.710938 167.320312 96.199219 C 169.558594 99.085938 170.25 98.199219 169.65625 93.199219 C 169.347656 90.601562 169.355469 89.082031 169.671875 89.800781 C 170.613281 91.949219 175.199219 84.898438 174.550781 82.300781 C 174.046875 80.28125 174.300781 80.121094 177.601562 80.351562 C 179.601562 80.488281 181.566406 81.265625 182.027344 82.101562 Z M 201.25 86.5 C 202.265625 89.789062 203.371094 95.550781 203.699219 99.25 L 204.300781 106 L 186.300781 106 L 185.648438 97.25 C 185.292969 92.449219 184.554688 86.964844 184.011719 85.101562 C 182.683594 80.53125 183.699219 79.941406 192.398438 80.253906 L 199.398438 80.5 Z M 59.550781 83.75 C 59.195312 85.253906 58.628906 91.148438 58.300781 96.75 L 57.699219 107 L 42 107 L 42.039062 103.699219 C 42.09375 98.898438 44.640625 85.570312 45.96875 83.101562 C 46.953125 81.273438 47.949219 81 53.648438 81 L 60.199219 81 Z M 67.601562 82.5 C 68.398438 83.300781 68.773438 84.535156 68.398438 85.148438 C 67.972656 85.851562 68.128906 86.027344 68.800781 85.601562 C 69.476562 85.167969 70.226562 86.148438 70.75 88.148438 C 71.273438 90.148438 72.734375 92.035156 74.550781 93.050781 C 77.234375 94.550781 77.527344 95.25 77.800781 100.851562 L 78.101562 107 L 58.699219 107 L 59.25 96.75 C 59.550781 91.148438 60.277344 85.273438 60.847656 83.800781 C 62.050781 80.699219 65.195312 80.09375 67.601562 82.5 Z M 99.277344 92.699219 C 98.734375 104.800781 97.792969 108.164062 96.152344 103.898438 C 94.417969 99.398438 87.226562 95.449219 84.199219 97.332031 C 81.945312 98.738281 80.308594 97.300781 80.171875 93.800781 C 79.996094 89.199219 81.007812 84.855469 82.101562 85.535156 C 82.59375 85.847656 83 84.949219 83 83.550781 C 83 81.03125 83.101562 81 91.398438 81 L 99.800781 81 Z M 114.949219 82.25 C 114.925781 82.90625 114.21875 84.398438 113.464844 85.398438 C 111.324219 88.230469 111.601562 96.199219 113.945312 99.199219 C 115.496094 101.183594 116.550781 101.597656 119.050781 101.199219 C 122.050781 100.722656 122.183594 100.839844 121.851562 103.601562 L 121.5 106.5 L 100 107.101562 L 100 99.300781 C 100 95 100.292969 89.144531 100.648438 86.25 L 101.300781 81 L 108.148438 81 C 112.949219 81 114.984375 81.375 114.949219 82.25 Z M 134.25 81.699219 C 133.550781 81.980469 132.449219 81.980469 131.75 81.699219 C 131.050781 81.421875 131.601562 81.199219 133 81.199219 C 134.398438 81.199219 134.949219 81.421875 134.25 81.699219 Z M 80.371094 84.800781 C 78.3125 91.199219 74.949219 93.320312 74.976562 88.199219 C 74.992188 85.101562 75.886719 83.496094 78 82.769531 C 80.101562 82.046875 81.007812 82.824219 80.371094 84.800781 Z M 222.554688 86.601562 C 223.300781 90.601562 222.503906 92.023438 220.757812 89.800781 C 219.671875 88.421875 218.699219 88.371094 213.699219 89.449219 C 210.398438 90.160156 207.671875 90.3125 207.367188 89.800781 C 206.621094 88.535156 206.800781 88.453125 213.5 86.894531 C 216.800781 86.128906 219.5625 84.914062 219.640625 84.199219 C 219.878906 82 219.992188 81.859375 221 82.515625 C 221.488281 82.832031 222.199219 84.699219 222.554688 86.601562 Z M 138.449219 90.5 C 139.628906 93.601562 140.640625 94.9375 141.550781 94.601562 C 142.25 94.339844 143.199219 94.582031 143.519531 95.101562 C 144.328125 96.398438 141.078125 97.476562 139.898438 96.300781 C 138.601562 95 134.742188 84.691406 135.800781 85.34375 C 136.289062 85.644531 137.5 88 138.449219 90.5 Z M 151.199219 87.71875 C 152.074219 88.472656 153.355469 91.101562 154.023438 93.5 C 155.359375 98.300781 157 99.511719 157 95.699219 C 157 93.199219 159.570312 89 161.101562 89 C 162.824219 89 165 95.699219 165 101 L 165 106 L 145.101562 106 L 144.800781 99.75 C 144.597656 95.550781 144.976562 92.730469 145.949219 91.148438 C 147.246094 89.050781 147.21875 88.667969 145.699219 87.550781 C 144.800781 86.886719 144 85.972656 144 85.601562 C 144 84.574219 149.398438 86.164062 151.199219 87.71875 Z M 38.199219 88.703125 C 36 90.234375 35.148438 94 37 94 C 37.53125 94 38 94.699219 38 95.5 C 38 97.398438 38 97.398438 32.300781 94.699219 C 23.300781 90.433594 22.703125 89.976562 24.027344 88.398438 C 24.871094 87.394531 27.351562 87.015625 32.851562 87.050781 C 40.050781 87.097656 40.363281 87.195312 38.199219 88.703125 Z M 224 94.898438 C 224 95.410156 222.699219 96.105469 221 96.5 C 218.898438 96.988281 218 97.769531 218 99.101562 C 218 100.621094 218.699219 101 221.5 101 C 226.554688 101 225.800781 102.609375 220.398438 103.34375 C 213.601562 104.273438 209 104.132812 209 103 C 209 102.472656 209.898438 102 210.898438 102 C 214.300781 102 215.820312 100.925781 215.292969 98.898438 C 214.929688 97.503906 213.898438 97 211.398438 97 C 207.300781 97 206.855469 95.304688 210.800781 94.703125 C 216.199219 93.886719 224 94 224 94.898438 Z M 34.199219 98.199219 C 38.800781 98.199219 39.011719 99.539062 34.699219 101.355469 L 31.5 102.699219 L 34.300781 103.449219 C 41.15625 105.285156 33.101562 106.921875 25.101562 105.320312 C 22.601562 104.820312 22 104.175781 22 102 C 22 98.300781 23.929688 96.730469 27.5 97.527344 C 29.121094 97.890625 32.199219 98.199219 34.199219 98.199219 Z M 81.398438 98.625 C 83.175781 99.3125 83.421875 102.300781 81.929688 105.101562 C 80.230469 108.289062 79 107.199219 79 102.5 C 79 97.699219 79 97.699219 81.398438 98.625 Z M 144 102 C 144 104.800781 141.78125 107.082031 140.398438 105.699219 C 139.929688 105.230469 143 99 143.699219 99 C 143.871094 99 144 100.300781 144 102 Z M 123.699219 105.25 C 123.421875 105.949219 123.199219 105.398438 123.199219 104 C 123.199219 102.601562 123.421875 102.050781 123.699219 102.75 C 123.980469 103.449219 123.980469 104.550781 123.699219 105.25 Z M 218.648438 107 L 225.101562 107 L 224.789062 110.699219 C 224.4375 114.898438 222 116.558594 222 112.601562 C 222 111.199219 221.816406 110 221.601562 110 C 221.375 110 220.5 109.738281 219.601562 109.398438 C 218.414062 108.953125 218 109.5 218 111.5 C 218 113.199219 217.535156 114.03125 216.75 113.75 C 216.050781 113.5 215.632812 112.351562 215.800781 111.148438 C 216.023438 109.550781 215.589844 109 214.101562 109 C 212.828125 109 211.984375 109.800781 211.78125 111.199219 C 211.175781 115.339844 209 114.398438 209 110 C 209 106.601562 209.304688 105.914062 210.601562 106.398438 C 211.46875 106.726562 215.148438 107 218.648438 107 Z M 164.75 114.25 C 164.445312 118.25 163.707031 123.113281 163.101562 125.101562 L 162 128.699219 L 152.851562 129.398438 C 147.851562 129.78125 143.390625 129.738281 143.015625 129.300781 C 142.414062 128.59375 143.65625 111.300781 144.523438 108.300781 C 144.792969 107.371094 147.800781 107 155.101562 107 L 165.300781 107 Z M 183.699219 107.902344 C 183.863281 107.953125 183.953125 110.148438 183.898438 112.75 C 183.84375 115.351562 183.597656 116.730469 183.355469 115.800781 C 182.707031 113.308594 181.800781 113.558594 176.898438 117.585938 C 173.601562 120.296875 172.375 122.113281 172 124.851562 C 171.523438 128.320312 171.300781 128.515625 167.398438 128.800781 L 163.300781 129.101562 L 164.648438 122.300781 C 165.386719 118.601562 166.25 113.769531 166.550781 111.699219 C 166.855469 109.601562 167.503906 108.144531 168 108.449219 C 168.492188 108.75 169.199219 108.5 169.558594 107.898438 C 170.035156 107.105469 181.300781 107.105469 183.699219 107.902344 Z M 204.394531 107.800781 C 205.039062 108.847656 203.640625 119 202.050781 124.800781 L 200.898438 129 L 188.300781 129 L 188.75 126.148438 C 189 124.566406 188.488281 120.898438 187.597656 117.898438 C 185.636719 111.300781 185.628906 110.589844 187.5 111.332031 C 189.234375 112.015625 189.324219 111.5 187.921875 108.898438 C 186.949219 107.089844 187.300781 107 195.398438 107 C 200.101562 107 204.121094 107.359375 204.394531 107.800781 Z M 37.378906 109.5 C 38.839844 113.300781 38.101562 114.703125 34.300781 115.351562 C 32.242188 115.703125 28.550781 116 26.25 116 C 22.050781 116 22 115.960938 22 112.5 C 22 110.601562 22.457031 109 23 109 C 23.539062 109 24.011719 109.601562 24.023438 110.300781 C 24.0625 112.5 25.648438 114.105469 27.199219 113.511719 C 28.183594 113.136719 28.609375 112.148438 28.300781 110.949219 C 27.96875 109.648438 28.332031 109 29.398438 109 C 30.359375 109 31 109.800781 31 111 C 31 112.300781 31.699219 113 33 113 C 34.441406 113 35 112.300781 35 110.5 C 35 107.699219 36.453125 107.089844 37.378906 109.5 Z M 58.449219 113.75 C 58.8125 116.949219 59.898438 121.828125 60.898438 124.75 L 62.699219 130 L 45.199219 130 L 43.601562 123.050781 C 42.726562 119.25 42 114.265625 42 112.050781 L 42 108 L 57.800781 108 Z M 78.550781 114.25 C 78.957031 117.648438 79.914062 122.550781 80.648438 125 C 81.398438 127.5 82 129.632812 82 129.800781 C 82 129.964844 77.898438 129.964844 72.800781 129.800781 L 63.601562 129.5 L 61.851562 123.699219 C 60.882812 120.5 59.785156 115.679688 59.398438 112.949219 L 58.699219 108 L 77.800781 108 Z M 82.5 111.25 C 82.886719 113.050781 84.058594 115.4375 85.125 116.601562 C 87.105469 118.761719 87.515625 120.800781 87.179688 126.800781 C 87.039062 129.300781 86.5625 130 85 130 C 82.886719 130 81.644531 126.601562 79.925781 116.101562 C 78.714844 108.699219 78.753906 108 80.398438 108 C 81.175781 108 82.113281 109.449219 82.5 111.25 Z M 121.800781 118.75 L 121.5 129.5 L 112.351562 129.800781 L 103.199219 130.101562 L 102 123.550781 C 101.046875 118.351562 101.046875 116.382812 102 114 C 102.679688 112.300781 102.960938 110.351562 102.648438 109.5 C 102.183594 108.226562 103.601562 108 112.101562 108 L 122.101562 108 Z M 125.46875 109.898438 C 125.820312 111.019531 125.8125 113.398438 125.449219 115.300781 C 125.066406 117.300781 125.433594 120.800781 126.335938 123.800781 C 127.960938 129.199219 127.761719 130 124.800781 130 C 123.164062 130 123 129 123 119 C 123 108.800781 123.976562 105.191406 125.46875 109.898438 Z M 143 110.800781 C 143 112.300781 142.328125 114.503906 141.550781 115.550781 C 140.761719 116.609375 140.078125 119.101562 140.050781 121 C 140.011719 123.800781 140.21875 124.199219 141.101562 123 C 141.941406 121.851562 142.0625 122.300781 141.609375 124.898438 C 140.882812 129.09375 141 128.984375 136.601562 129.707031 C 134.101562 130.117188 133 129.933594 133 129.101562 C 133 127.898438 135.210938 122.300781 137.105469 118.699219 C 137.601562 117.753906 138 115 138 112.5 C 138 108.398438 138.222656 108 140.5 108 C 142.554688 108 143 108.5 143 110.800781 Z M 210.953125 118.101562 C 209.359375 121.101562 212.519531 121.945312 215.070312 119.199219 C 219.03125 114.941406 225.589844 118.101562 222.96875 123 C 221.445312 125.839844 219.808594 125.5 220.5625 122.5 C 221.34375 119.398438 219.136719 119.125 216.558594 122 C 214.496094 124.300781 211.070312 124.671875 209.199219 122.800781 C 207.699219 121.300781 207.644531 117.753906 209.101562 116.300781 C 210.792969 114.609375 212.125 115.898438 210.953125 118.101562 Z M 37.347656 119.800781 C 38.242188 120.773438 39.113281 122.699219 39.25 124 C 39.476562 126.160156 38.898438 126.527344 33.5 127.675781 C 24.398438 129.613281 24 129.53125 24 125.699219 C 24 122.398438 25.828125 119.839844 29 118.691406 C 32.101562 117.570312 35.742188 118.050781 37.347656 119.800781 Z M 101 122.800781 C 101 123.285156 101.300781 125.148438 101.648438 126.851562 C 102.269531 129.851562 102.152344 130 99.199219 130 C 95.601562 130 95.601562 130 97.46875 125.5 C 98.757812 122.398438 101 120.683594 101 122.800781 Z M 214.5 126.496094 C 221.800781 128.679688 222.164062 128.855469 221.539062 129.898438 C 221.222656 130.425781 219.648438 130.445312 217.75 129.949219 C 215.9375 129.476562 212.601562 128.613281 210.199219 128 C 207.800781 127.386719 206.183594 126.457031 206.539062 125.898438 C 207.347656 124.636719 208.601562 124.730469 214.5 126.496094 Z M 41.300781 129.75 C 41.585938 130.75 42.078125 132.207031 42.449219 133.148438 C 42.964844 134.457031 41.898438 135.214844 37.300781 136.800781 C 34.101562 137.902344 30.761719 139.089844 29.851562 139.449219 C 28.613281 139.9375 27.921875 139.300781 27.085938 136.898438 C 25.660156 132.800781 27.425781 130.320312 28.9375 134.300781 C 30.230469 137.699219 33.453125 136.898438 32.578125 133.398438 C 32.25 132.101562 32.457031 130.816406 33.050781 130.449219 C 33.648438 130.078125 34.335938 130.699219 34.648438 131.898438 C 34.992188 133.199219 35.980469 134 37.25 134 C 38.957031 134 39.199219 133.5 38.699219 131 C 38.261719 128.800781 38.460938 128 39.449219 128 C 40.222656 128 41.015625 128.75 41.300781 129.75 Z M 160.519531 132.800781 C 159.453125 137.1875 155.480469 145.199219 152.09375 149.800781 L 149 154 L 135.101562 154 L 136.648438 149.75 C 137.515625 147.382812 138.996094 142.398438 140 138.5 L 141.800781 131.5 L 150.148438 130.949219 C 154.75 130.648438 159.105469 130.308594 159.851562 130.199219 C 160.863281 130.050781 161.03125 130.699219 160.519531 132.800781 Z M 180 131.398438 C 180 133.648438 173.285156 146.300781 169.96875 150.300781 L 166.898438 154 L 150.800781 154 L 152.984375 150.699219 C 155.5 146.898438 161.511719 134.914062 162.214844 132.300781 C 162.628906 130.761719 163.949219 130.472656 171.351562 130.300781 C 177.949219 130.148438 180 130.40625 180 131.398438 Z M 199.40625 132.300781 C 198.191406 136.34375 195.308594 141.398438 190.582031 147.800781 L 186 154 L 177.5 154 C 172.800781 154 169 153.84375 169 153.648438 C 169 153.460938 170.386719 151.550781 172.050781 149.449219 C 173.746094 147.3125 176.433594 142.800781 178.101562 139.300781 C 179.765625 135.800781 181.476562 133.222656 181.949219 133.5 C 182.421875 133.777344 183.851562 133.128906 185.148438 132.050781 C 186.941406 130.566406 189 130.089844 193.800781 130.050781 C 199.898438 130 200.078125 130.074219 199.40625 132.300781 Z M 216 132.859375 C 218.898438 135.003906 219.761719 138.425781 217.945312 140.601562 C 215.398438 143.652344 206.308594 141.300781 204.03125 137 C 202.867188 134.800781 204 131.605469 206.300781 130.613281 C 208.363281 129.722656 213.300781 130.867188 216 132.859375 Z M 66.019531 136.699219 C 71.777344 146.898438 77.296875 154.378906 82.800781 159.433594 L 88.101562 164.300781 L 85.148438 167.300781 L 82.199219 170.300781 L 76.851562 167.050781 C 73.949219 165.289062 69.4375 162.128906 67 160.148438 L 62.5 156.5 L 67 155.898438 L 71.5 155.300781 L 66.351562 155.148438 C 61.550781 155.011719 60.929688 154.695312 57.230469 150.5 C 52.996094 145.699219 47 135.207031 47 132.601562 C 47 131.261719 48.300781 131 54.898438 131 L 62.800781 131 Z M 84.898438 137.25 C 86.207031 140.648438 88.621094 145.894531 90.199219 148.75 L 93.101562 154 L 90.300781 154.050781 C 88.800781 154.078125 86.570312 154.519531 85.5 155 C 84.046875 155.652344 85.050781 155.914062 89.148438 155.949219 C 94.449219 155.996094 94.992188 156.242188 97.898438 159.898438 L 101 163.800781 L 98.101562 164.992188 C 91.832031 167.570312 79.679688 157.398438 70.503906 141.898438 C 67.484375 136.800781 65 132.238281 65 131.800781 C 65 131.359375 68.949219 131 73.75 131 L 82.5 131 Z M 87.5 133.75 C 87.878906 135.242188 88.382812 137.851562 88.601562 139.449219 C 88.816406 141.050781 89.914062 143.339844 91 144.449219 L 93 146.5 L 92.351562 143 C 91.996094 141.101562 91.65625 139.25 91.601562 138.949219 C 91.546875 138.652344 92.167969 136.699219 92.949219 134.699219 C 94.273438 131.320312 94.75 131 98.449219 131 L 102.5 131 L 104.898438 141.25 C 106.210938 146.851562 107.503906 152.066406 107.75 152.75 C 108.085938 153.679688 106.398438 154 101.199219 154 L 94.199219 154 L 89.632812 144.699219 C 84.128906 133.5 83.339844 131 85.300781 131 C 86.117188 131 87.117188 132.25 87.5 133.75 Z M 122 142.5 L 122 154 L 109.199219 154 L 107.148438 146.25 C 106.011719 141.949219 104.8125 136.832031 104.449219 134.75 L 103.800781 131 L 122 131 Z M 140 132.601562 C 140 134.890625 137.160156 145.601562 135.359375 150.101562 C 133.828125 153.925781 133.699219 154 128.398438 154 L 123 154 L 123 131 L 131.5 131 C 138.601562 131 140 131.265625 140 132.601562 Z M 40.949219 142.648438 C 41.835938 142.394531 43.25 141.898438 44.25 141.5 C 45.25 141.101562 46 141.273438 46 141.898438 C 46 142.953125 35.101562 149 33.199219 149 C 32 149 29.5625 143.058594 30.410156 142.199219 C 30.796875 141.808594 31.9375 142.601562 33 144 C 34.445312 145.898438 35.175781 146.222656 36.050781 145.351562 C 36.914062 144.488281 36.925781 143.699219 36.101562 142.199219 C 35.273438 140.699219 35.3125 140.085938 36.25 139.75 C 36.90625 139.511719 37.949219 140.199219 38.449219 141.199219 C 39 142.300781 40.050781 142.910156 40.949219 142.648438 Z M 208.648438 143.648438 C 212.75 145.96875 214.753906 147.644531 214.148438 148.25 C 213.550781 148.847656 211.199219 148.070312 207.800781 146.148438 C 202.5 143.15625 202.378906 143.136719 201.152344 145.101562 C 199.195312 148.230469 197.828125 146.300781 199.59375 142.898438 C 200.425781 141.300781 201.347656 140 201.648438 140 C 201.949219 140 205.148438 141.667969 208.648438 143.648438 Z M 203.601562 151.042969 C 209 154.398438 209.371094 161.050781 204.199219 161.824219 C 199.398438 162.542969 192.449219 155.972656 193.8125 152 C 195.035156 148.429688 198.800781 148.0625 203.601562 151.042969 Z M 53.03125 152.5 C 54.453125 154 55.019531 155.339844 54.449219 155.851562 C 53.921875 156.324219 51.101562 158.410156 48.101562 160.550781 L 42.699219 164.398438 L 40.875 162.101562 C 38.238281 158.78125 38.5 157.300781 42.398438 153.398438 C 46.5 149.300781 49.742188 149.027344 53.03125 152.5 Z M 109 157 C 109 159.199219 105.644531 163 103.699219 163 C 102.972656 163 100.960938 161.5 99.132812 159.601562 C 95.355469 155.667969 95.800781 155.28125 104.300781 155.101562 C 108.398438 155.011719 109 155.253906 109 157 Z M 121.804688 157.101562 C 122.226562 159.300781 114.203125 160.921875 112.910156 158.898438 C 110.953125 155.824219 111.898438 154.898438 116.699219 155.199219 C 120.199219 155.417969 121.582031 155.933594 121.804688 157.101562 Z M 133 155.601562 C 133 156.359375 126.398438 159 124.5 159 C 123.675781 159 123 158.101562 123 157 C 123 155.28125 123.699219 155 128 155 C 130.800781 155 133 155.265625 133 155.601562 Z M 147 155.898438 C 147 158.800781 135.929688 161.339844 134.355469 158.800781 C 132.8125 156.308594 135.101562 155 141 155 C 144.300781 155 147 155.40625 147 155.898438 Z M 161.351562 158.851562 C 159.050781 160.929688 155.574219 163.46875 153.550781 164.550781 C 149.949219 166.472656 149.882812 166.472656 148.5 164.5 C 147.730469 163.398438 146.582031 161.914062 145.949219 161.199219 C 145.058594 160.191406 145.304688 159.351562 147.050781 157.449219 C 149.078125 155.242188 150.101562 155.003906 157.398438 155.050781 L 165.5 155.101562 Z M 181.882812 157.601562 C 178.746094 160.972656 168.699219 168.160156 163.199219 170.960938 L 159 173.101562 L 155.398438 170.351562 L 151.800781 167.601562 L 153.949219 166.050781 C 155.117188 165.207031 158.699219 162.355469 161.800781 159.800781 L 167.5 155.101562 L 175.898438 155.050781 L 184.300781 155 Z M 58.550781 159.050781 L 60.699219 161.101562 L 55.101562 166.488281 C 48.199219 173.128906 45.980469 172.609375 52.582031 165.898438 C 56.316406 162.101562 57.128906 160.730469 56.199219 159.800781 C 54.898438 158.5 54.632812 157 55.699219 157 C 56.089844 157 57.351562 157.90625 58.550781 159.050781 Z M 195.398438 161.011719 C 197.300781 162.6875 199.175781 164.96875 199.5 166 C 200.417969 168.898438 198.300781 172 195.398438 172 C 192.398438 172 192.128906 170.453125 195 169.703125 C 197.707031 168.996094 197.5 166.398438 194.5 163.398438 C 191.800781 160.699219 188.5 160.480469 188.5 163 C 188.5 163.976562 189.300781 164.414062 190.800781 164.25 C 193.398438 163.96875 193.855469 166.0625 191.601562 167.945312 C 190.386719 168.960938 189.609375 168.699219 187.542969 166.601562 C 184.492188 163.5 184.417969 162.582031 187 160 C 189.71875 157.28125 191.398438 157.480469 195.398438 161.011719 Z M 63.300781 163.625 C 63.636719 163.945312 63.480469 165.300781 62.945312 166.699219 C 61.679688 170 62.523438 170.738281 65 168.503906 C 69.074219 164.816406 68.09375 168.101562 63.386719 173.898438 C 58.679688 179.699219 58.5625 179.773438 56.300781 178.132812 C 52.449219 175.34375 53.699219 169 58.101562 169 C 59.175781 169 60.042969 167.898438 60.46875 166 C 61.109375 163.101562 61.988281 162.363281 63.300781 163.625 Z M 191.996094 175.699219 C 192.070312 178.117188 190.21875 176.898438 185.601562 171.5 C 183.039062 168.5 181.183594 165.546875 181.519531 165 C 182.21875 163.871094 191.9375 173.800781 191.996094 175.699219 Z M 181 169.5 C 181 170.324219 180.101562 171 179 171 C 177.898438 171 177 171.675781 177 172.5 C 177 173.558594 178 174 180.398438 174 C 184.101562 174 187 176.152344 187 178.898438 C 187 181.144531 185.101562 183 182.800781 183 C 180.46875 183 180.601562 181.75 183.101562 180.1875 C 185.785156 178.511719 184.601562 177 180.601562 177 C 178.800781 177 176.875 176.476562 176.199219 175.800781 C 174.601562 174.199219 174.601562 169.285156 176.199219 168.640625 C 178.699219 167.628906 181 168.042969 181 169.5 Z M 74.800781 172.199219 C 77.742188 175.144531 74 184.4375 69.398438 185.605469 C 63.601562 187.078125 61.882812 178.964844 66.921875 173.898438 C 70.007812 170.800781 72.796875 170.199219 74.800781 172.199219 Z M 173 179.449219 C 174.992188 182.949219 176.582031 184.722656 177.449219 184.398438 C 178.148438 184.140625 179.128906 184.429688 179.480469 185 C 180.21875 186.199219 173.339844 189.648438 172.296875 188.601562 C 171.921875 188.222656 172.199219 187.53125 172.898438 187.101562 C 173.914062 186.472656 173.515625 185.101562 171.070312 180.800781 C 167.710938 174.898438 167.425781 174 168.898438 174 C 169.449219 174 171.292969 176.449219 173 179.449219 Z M 83.507812 179.199219 C 81.746094 185.300781 81.84375 185.519531 84.792969 182.101562 C 88.683594 177.585938 89.484375 179.300781 87.40625 187.699219 C 85.5 195.398438 85.5 195.398438 84.199219 194.609375 C 83.53125 194.203125 83.523438 192.800781 84.171875 190.398438 C 85.464844 185.601562 84.605469 185.246094 81.984375 189.5 C 79.769531 193.101562 77.488281 193.359375 78.464844 189.898438 C 80.300781 183.398438 80.300781 183.398438 77.207031 187 C 72.492188 192.488281 72.316406 189.898438 76.941406 183.101562 C 81.09375 177 84.777344 174.8125 83.507812 179.199219 Z M 165 179.398438 C 165 180.140625 164.199219 180.730469 163.300781 180.648438 C 162.328125 180.566406 161.449219 181.25 161.25 182.25 C 161 183.5 161.5 184 163 184 C 166.800781 184 169 185.871094 169 189.101562 C 169 191.300781 168.398438 192.328125 166.75 192.949219 C 165.550781 193.402344 164.171875 193.597656 163.800781 193.367188 C 162.414062 192.511719 163 191.21875 165 190.707031 C 166.101562 190.429688 167 189.707031 167 189.101562 C 167 187.886719 166.300781 187.546875 161.800781 186.578125 C 158.601562 185.886719 157.054688 181.910156 159.046875 179.5 C 160.617188 177.601562 165 177.527344 165 179.398438 "/>
<path style=" stroke:none;fill-rule:nonzero;fill:rgb(0%,0%,0%);fill-opacity:1;" d="M 265 107.5 L 265 202 L 270 202 L 270 13 L 265 13 L 265 107.5 "/>
<path style=" stroke:none;fill-rule:nonzero;fill:rgb(0%,0%,0%);fill-opacity:1;" d="M 896.066406 17.699219 C 901.070312 23.925781 902.285156 35.300781 899.59375 50.699219 C 897.566406 62.300781 897.570312 65.472656 899.609375 71.398438 C 901.84375 77.886719 905.800781 81.542969 917 87.457031 C 927.800781 93.160156 934.199219 98.519531 937.21875 104.398438 C 941.660156 113.042969 942 116.601562 942 154.699219 L 942 191 L 968 191 L 968 155.199219 C 968 116.199219 967.445312 110.757812 962.648438 102.601562 C 959.441406 97.140625 954 92.933594 941.898438 86.550781 C 925.472656 77.890625 922.402344 71.398438 925.46875 51.800781 C 927.691406 37.601562 927.222656 27.234375 924.070312 20.699219 L 921.800781 16 L 908.25 16 C 895.449219 16 894.777344 16.09375 896.066406 17.699219 "/>
<path style=" stroke:none;fill-rule:nonzero;fill:rgb(0%,0%,0%);fill-opacity:1;" d="M 945 16.699219 C 945 17.078125 946.019531 19.5 947.234375 22 C 950.050781 27.800781 950.660156 37 948.882812 46.898438 C 946.78125 58.601562 947.144531 69.632812 949.800781 74.699219 C 952.460938 79.777344 955.800781 82.390625 967 88.15625 C 977.898438 93.769531 984.984375 100.589844 988.121094 108.5 C 990.445312 114.367188 990.507812 115.351562 990.800781 152.75 L 991.101562 191 L 1017 191 L 1017 154.898438 C 1017 125.5 1016.710938 117.6875 1015.441406 112.800781 C 1012.550781 101.648438 1007 95.273438 994.601562 88.859375 C 977.5 80.015625 973.589844 75.308594 973.53125 63.5 C 973.515625 59.675781 974.15625 51.601562 974.949219 45.699219 C 976.628906 33.199219 975.628906 24.066406 972.03125 19 L 969.898438 16 L 957.449219 16 C 950.648438 16 945 16.316406 945 16.699219 "/>
<path style=" stroke:none;fill-rule:nonzero;fill:rgb(0%,0%,0%);fill-opacity:1;" d="M 993 16.699219 C 993 17.089844 993.96875 19.398438 995.183594 21.898438 C 998.050781 27.816406 998.632812 36.199219 996.914062 46.898438 C 994.824219 59.898438 995.132812 69.628906 997.792969 74.699219 C 1000.460938 79.777344 1003.800781 82.394531 1015 88.179688 C 1025.800781 93.757812 1032.890625 100.613281 1036.019531 108.5 C 1038.351562 114.382812 1038.410156 115.25 1038.75 152.75 L 1039.101562 191 L 1065.101562 191 L 1064.710938 152.199219 C 1064.300781 111.898438 1064.300781 111.898438 1059.789062 103.5 C 1057.089844 98.46875 1049.898438 92.601562 1040.398438 87.683594 C 1022.480469 78.40625 1019.28125 71.898438 1022.421875 51.101562 C 1025 34 1024.28125 24.976562 1019.820312 18.699219 C 1017.910156 16.011719 1017.851562 16 1005.449219 16 C 998.648438 16 993 16.316406 993 16.699219 "/>
<path style=" stroke:none;fill-rule:nonzero;fill:rgb(0%,0%,0%);fill-opacity:1;" d="M 556.398438 27.90625 C 545.199219 31.128906 536.710938 37.738281 533.28125 45.898438 C 530.976562 51.390625 531.300781 60.898438 533.984375 66.5 C 538.117188 75.113281 546.601562 79.386719 567.800781 83.53125 C 582.601562 86.425781 588.609375 88.449219 589.980469 91 C 590.546875 92.054688 591 94.75 591 97.050781 C 591 100.351562 590.386719 101.773438 588 104 C 580.03125 111.4375 557.898438 110.1875 545.199219 101.585938 L 540.199219 98.199219 L 534.820312 104.699219 C 528.449219 112.398438 528.289062 112.769531 530.601562 114.589844 C 539.21875 121.371094 555.398438 126 570.5 126 C 590.601562 126 604.941406 119.496094 611.28125 107.5 C 614.085938 102.199219 614.238281 91.058594 611.574219 86 C 606.28125 75.9375 600.398438 72.507812 581.398438 68.402344 C 563.601562 64.554688 559.441406 63.246094 556.101562 60.4375 C 550.179688 55.460938 552.5 47.480469 560.800781 44.289062 C 569.316406 41.011719 582.398438 42.230469 594.199219 47.398438 C 595.386719 47.917969 597.253906 46.351562 601.398438 41.351562 C 604.46875 37.648438 607 34.238281 607 33.800781 C 607 32.578125 598.5 29.09375 591.5 27.441406 C 583 25.4375 564.113281 25.6875 556.398438 27.90625 "/>
<path style=" stroke:none;fill-rule:nonzero;fill:rgb(0%,0%,0%);fill-opacity:1;" d="M 294.199219 28.25 C 294.421875 28.9375 301.976562 51 311 77.300781 L 327.398438 125.101562 L 337.351562 124.800781 L 347.300781 124.5 L 356.398438 94.75 C 361.414062 78.351562 365.722656 65 366 65 C 366.277344 65 370.539062 78.351562 375.5 94.75 L 384.5 124.5 L 393.898438 124.800781 C 399.101562 124.964844 403.65625 124.742188 404.101562 124.300781 C 404.746094 123.65625 438 28.601562 438 27.398438 C 438 27.179688 432.851562 27 426.550781 27 L 415.101562 27 L 411.601562 38.25 C 409.683594 44.417969 405.277344 58.648438 401.851562 69.75 C 398.425781 80.851562 395.304688 89.660156 394.949219 89.25 C 394.59375 88.839844 390.335938 74.648438 385.5 57.75 L 376.699219 27 L 355.398438 27 L 346.550781 57.25 C 341.691406 73.851562 337.382812 88.132812 337 88.898438 C 336.507812 89.886719 335.980469 89.300781 335.21875 86.898438 C 334.007812 83.101562 318.175781 31.40625 317.390625 28.699219 C 316.960938 27.214844 315.449219 27 305.351562 27 C 296.550781 27 293.894531 27.296875 294.199219 28.25 "/>
<path style=" stroke:none;fill-rule:nonzero;fill:rgb(0%,0%,0%);fill-opacity:1;" d="M 452 76 L 452 125 L 473 125 L 473 85 L 513.5 84.5 L 513.5 67.5 L 472.898438 67 L 473.5 44.5 L 517.5 44.101562 L 518.101562 27 L 452 27 L 452 76 "/>
<path style=" stroke:none;fill-rule:nonzero;fill:rgb(0%,0%,0%);fill-opacity:1;" d="M 642.199219 74.25 C 631.636719 100.25 622.730469 122.285156 622.398438 123.25 C 621.851562 124.847656 622.75 125 632.648438 125 L 643.5 125 L 651.101562 105 L 692.800781 105 L 700.300781 125 L 711.148438 125 C 717.148438 125 722 124.820312 722 124.601562 C 722 123.914062 684.09375 31.101562 682.917969 28.898438 C 682.015625 27.214844 680.75 27 671.648438 27 L 661.398438 27 Z M 679.050781 68.5 C 682.433594 77.300781 685.425781 85.0625 685.699219 85.75 C 686.089844 86.71875 683 87 672 87 C 658.898438 87 657.847656 86.867188 658.429688 85.300781 C 665.667969 65.800781 671.632812 51.308594 672.199219 51.839844 C 672.585938 52.203125 675.667969 59.699219 679.050781 68.5 "/>
<path style=" stroke:none;fill-rule:nonzero;fill:rgb(0%,0%,0%);fill-opacity:1;" d="M 1296.5 55.921875 C 1285.199219 57.78125 1279.160156 66.4375 1281.941406 76.800781 C 1283.398438 82.246094 1287.601562 85.550781 1296.300781 88.089844 C 1308.398438 91.625 1309 91.957031 1309 95.101562 C 1309 97.5 1308.5 97.996094 1305.5 98.574219 C 1301.109375 99.417969 1295.800781 98.464844 1290.898438 95.949219 C 1288.800781 94.871094 1286.878906 94 1286.601562 94 C 1286.320312 94 1284.691406 96.050781 1282.898438 98.648438 L 1279.699219 103.300781 L 1282.5 105.53125 C 1288.28125 110.144531 1302.601562 112.332031 1311.300781 109.941406 C 1320.398438 107.4375 1325.601562 98.089844 1322.898438 89.101562 C 1320.988281 82.71875 1316.699219 79.988281 1301.699219 75.597656 C 1298.5 74.660156 1295.640625 73.226562 1295.320312 72.398438 C 1293.570312 67.839844 1303.101562 66.398438 1310.699219 70.070312 C 1314.800781 72.054688 1315.21875 72.089844 1316.898438 70.601562 C 1317.878906 69.730469 1319.550781 67.398438 1320.550781 65.5 C 1322.351562 62.101562 1322.339844 61.957031 1320.398438 60.480469 C 1315.769531 56.96875 1303.898438 54.703125 1296.5 55.921875 "/>
<path style=" stroke:none;fill-rule:nonzero;fill:rgb(0%,0%,0%);fill-opacity:1;" d="M 1525.5 55.953125 C 1520.5 56.773438 1516.238281 58.980469 1513.03125 62.398438 C 1511.191406 64.371094 1510.5 66.398438 1510.199219 70.800781 C 1509.488281 81.171875 1513.199219 85.058594 1527.5 88.945312 C 1536.300781 91.339844 1538 92.335938 1538 95.101562 C 1538 99.589844 1527.699219 100.082031 1519.601562 95.976562 L 1515.5 93.898438 L 1512.238281 97.601562 C 1507.511719 102.972656 1507.898438 104.609375 1514.699219 107.789062 C 1519.710938 110.128906 1521.800781 110.5 1530 110.5 C 1537.699219 110.5 1540.261719 110.105469 1543.5 108.410156 C 1550.300781 104.863281 1554.148438 94.070312 1550.890625 87.699219 C 1547.769531 81.609375 1544.800781 79.976562 1528.101562 75.136719 C 1525.101562 74.265625 1523.441406 71.90625 1524.269531 69.699219 C 1525.179688 67.289062 1533 67.523438 1539.101562 70.148438 C 1541.898438 71.355469 1544.230469 72.125 1544.410156 71.898438 C 1548.308594 66.800781 1550 64.058594 1550 62.800781 C 1550 60.558594 1540.601562 56.273438 1534.5 55.738281 C 1531.699219 55.492188 1527.738281 55.589844 1525.5 55.953125 "/>
<path style=" stroke:none;fill-rule:nonzero;fill:rgb(0%,0%,0%);fill-opacity:1;" d="M 1138 83.050781 L 1138 110.101562 L 1151.5 109.5 L 1152.101562 89.101562 L 1170.5 88.5 L 1171.101562 77 L 1151.898438 77 L 1152.5 68.5 L 1165 68.398438 L 1177.5 68.300781 L 1177.800781 62.148438 L 1178.101562 56 L 1138 56 L 1138 83.050781 "/>
<path style=" stroke:none;fill-rule:nonzero;fill:rgb(0%,0%,0%);fill-opacity:1;" d="M 1183.648438 57.5 C 1182.851562 59.601562 1182.789062 106.308594 1183.589844 108.398438 C 1184.058594 109.625 1185.699219 110 1190.601562 110 L 1197 110 L 1197 92 L 1200.800781 92 C 1204.601562 92 1204.601562 92 1209 101 L 1213.398438 110 L 1220.699219 110 C 1225 110 1228 109.589844 1228 109 C 1228 108.445312 1225.890625 104 1223.25 99 L 1218.5 90 L 1221.898438 87.316406 C 1226.011719 84.070312 1228 79.5 1228 73.300781 C 1228 66.699219 1225.390625 62.035156 1220 59.019531 C 1215.820312 56.679688 1214.398438 56.476562 1199.898438 56.148438 C 1186.101562 55.839844 1184.230469 55.996094 1183.648438 57.5 Z M 1213.03125 70 C 1214.320312 72.101562 1214.191406 77.414062 1212.800781 78.800781 C 1212.089844 79.507812 1208.601562 80 1204.300781 80 L 1197 80 L 1197 67.800781 L 1204.550781 68.148438 C 1209.75 68.390625 1212.390625 68.96875 1213.03125 70 "/>
<path style=" stroke:none;fill-rule:nonzero;fill:rgb(0%,0%,0%);fill-opacity:1;" d="M 1236 83 L 1236 110 L 1277.101562 110 L 1276.5 98.5 L 1250 97.898438 L 1250 88 L 1266 88 L 1266 76 L 1250 76 L 1250 68 L 1275.101562 68 L 1274.5 56.5 L 1236 56 L 1236 83 "/>
<path style=" stroke:none;fill-rule:nonzero;fill:rgb(0%,0%,0%);fill-opacity:1;" d="M 1331 83 L 1331 110 L 1371.5 109.5 L 1371.5 98.5 L 1344.5 97.5 L 1344.5 88.5 L 1361 87.898438 L 1361 76.101562 L 1344.5 75.5 L 1344.5 68.5 L 1370.101562 67.898438 L 1369.5 56.5 L 1331 56 L 1331 83 "/>
<path style=" stroke:none;fill-rule:nonzero;fill:rgb(0%,0%,0%);fill-opacity:1;" d="M 1378.648438 56.648438 C 1378.289062 57.007812 1378 69.148438 1378 83.648438 L 1378 110 L 1391 110 L 1391 95.398438 C 1391 86.601562 1391.398438 80.941406 1392 81.160156 C 1392.789062 81.445312 1401.421875 93.5 1410.351562 106.800781 C 1412.328125 109.746094 1412.949219 110 1418.148438 110 C 1422.351562 110 1423.960938 109.589844 1424.410156 108.398438 C 1425.328125 106 1425.058594 58.6875 1424.121094 57.199219 C 1423.558594 56.320312 1421.398438 55.996094 1417.398438 56.199219 L 1411.5 56.5 L 1411.199219 70.25 C 1411.03125 77.851562 1410.589844 83.976562 1410.199219 83.949219 C 1409.820312 83.921875 1407.808594 81.300781 1405.800781 78.199219 C 1403.78125 75.089844 1399.351562 68.75 1396.050781 64.25 L 1390 56 L 1384.648438 56 C 1381.75 56 1379 56.296875 1378.648438 56.648438 "/>
<path style=" stroke:none;fill-rule:nonzero;fill:rgb(0%,0%,0%);fill-opacity:1;" d="M 1434.699219 56.601562 C 1434.320312 56.984375 1434 69.199219 1434 83.699219 L 1434 110.101562 L 1447.5 109.5 L 1447.5 56.5 L 1441.449219 56.199219 C 1438.148438 56.035156 1435.078125 56.21875 1434.699219 56.601562 "/>
<path style=" stroke:none;fill-rule:nonzero;fill:rgb(0%,0%,0%);fill-opacity:1;" d="M 1457.199219 76.199219 C 1457.488281 95.699219 1457.601562 96.671875 1460.011719 100.898438 C 1463.351562 106.734375 1469.300781 110.136719 1477.300781 110.773438 C 1485.199219 111.40625 1491.039062 109.816406 1495.601562 105.792969 C 1502.078125 100.078125 1502.421875 98.699219 1502.828125 76.199219 L 1503.199219 55.898438 L 1496.351562 56.199219 L 1489.5 56.5 L 1489.25 74.5 C 1489.011719 91.699219 1488.890625 92.632812 1486.601562 95.5 C 1484.601562 98 1483.5 98.5 1480 98.5 C 1476.5 98.5 1475.398438 98 1473.398438 95.5 C 1471.109375 92.632812 1470.988281 91.699219 1470.75 74.5 L 1470.5 56.5 L 1456.898438 55.898438 L 1457.199219 76.199219 "/>
<path style=" stroke:none;fill-rule:nonzero;fill:rgb(0%,0%,0%);fill-opacity:1;" d="M 1138.699219 137.601562 C 1138.308594 137.984375 1138 150.148438 1138 164.648438 L 1138 191 L 1152 191 L 1152 182.949219 C 1152 175.851562 1152.308594 174.492188 1154.601562 171.449219 C 1156.03125 169.550781 1157.558594 168 1158 168 C 1158.441406 168 1161.179688 172.648438 1164.050781 178.25 C 1166.921875 183.851562 1169.730469 189.042969 1170.25 189.699219 C 1171.449219 191.199219 1186 191.570312 1186 190.101562 C 1186 189.554688 1185.160156 187.601562 1184.160156 185.800781 C 1178.140625 175 1169 157.09375 1169 156.101562 C 1169 155.4375 1172.128906 151.351562 1176 146.949219 C 1179.871094 142.550781 1183 138.53125 1183 137.949219 C 1183 137.285156 1180.148438 137.011719 1175.25 137.199219 L 1167.5 137.5 L 1152.5 156.398438 L 1151.5 137.5 L 1145.449219 137.199219 C 1142.148438 137.035156 1139.078125 137.21875 1138.699219 137.601562 "/>
<path style=" stroke:none;fill-rule:nonzero;fill:rgb(0%,0%,0%);fill-opacity:1;" d="M 1207.949219 139.699219 C 1207.359375 141.269531 1206.089844 144.699219 1205.050781 147.5 C 1204.039062 150.242188 1200.648438 159.5 1197.550781 168 C 1194.449219 176.5 1191.46875 184.539062 1190.949219 185.800781 C 1189 190.527344 1189.5 191 1196.5 191 C 1203.398438 191 1203.898438 190.671875 1205.570312 185 L 1206.601562 181.5 L 1224.398438 181.5 L 1226.101562 186 L 1227.800781 190.5 L 1234.898438 190.800781 C 1238.800781 190.964844 1242 190.738281 1242 190.300781 C 1242 189.855469 1240.929688 186.601562 1239.601562 183 C 1238.28125 179.425781 1234.210938 168.398438 1230.550781 158.5 C 1226.890625 148.601562 1223.539062 139.824219 1223.101562 139 C 1222.550781 137.960938 1220.25 137.40625 1215.648438 137.199219 C 1209.148438 136.90625 1208.980469 136.964844 1207.949219 139.699219 Z M 1218.699219 161.699219 C 1219.808594 165.199219 1220.480469 168.222656 1220.199219 168.5 C 1219.171875 169.53125 1211 169 1211 167.898438 C 1211 167.007812 1211.679688 164.601562 1214.609375 155.101562 C 1215.300781 152.878906 1216.550781 154.898438 1218.699219 161.699219 "/>
<path style=" stroke:none;fill-rule:nonzero;fill:rgb(0%,0%,0%);fill-opacity:1;" d="M 1248 163.898438 L 1248 191 L 1263.800781 191 C 1278.199219 191 1279.988281 190.800781 1284 188.746094 C 1289.699219 185.828125 1292.140625 182.300781 1292.75 176.101562 C 1293.308594 170.398438 1291.75 165.464844 1288.898438 163.953125 C 1286.46875 162.660156 1286.53125 161.199219 1289.140625 158.398438 C 1293.941406 153.238281 1291.800781 143.46875 1285 139.527344 C 1281.929688 137.75 1279.449219 137.457031 1264.75 137.148438 L 1248 136.800781 Z M 1274.800781 148.660156 C 1277.5 149.382812 1278.820312 153.382812 1277.050781 155.5 C 1276.148438 156.574219 1273.699219 157 1268.398438 157 L 1261 157 L 1261 153.148438 C 1261 151.050781 1261.320312 148.992188 1261.699219 148.621094 C 1262.539062 147.800781 1271.699219 147.828125 1274.800781 148.660156 Z M 1277.199219 169.25 C 1280.199219 171.59375 1280.339844 174.6875 1277.558594 177.5 C 1275.25 179.847656 1274.351562 180.070312 1268.25 179.800781 L 1261.5 179.5 L 1260.898438 168 L 1268.25 168 C 1272.648438 168 1276.238281 168.5 1277.199219 169.25 "/>
<path style=" stroke:none;fill-rule:nonzero;fill:rgb(0%,0%,0%);fill-opacity:1;" d="M 1302.699219 137.601562 C 1302.320312 137.984375 1302 150.199219 1302 164.699219 L 1302 191.101562 L 1315.5 190.5 L 1315.5 137.5 L 1309.449219 137.199219 C 1306.148438 137.035156 1303.078125 137.21875 1302.699219 137.601562 "/>
<path style=" stroke:none;fill-rule:nonzero;fill:rgb(0%,0%,0%);fill-opacity:1;" d="M 300.074219 147.101562 C 300.191406 150.101562 304.789062 160.5 306 160.5 C 306.726562 160.5 308.046875 158.300781 309 155.5 L 310.699219 150.5 L 312.449219 155.75 C 313.417969 158.648438 314.738281 161 315.398438 161 C 316.449219 161 321 149.699219 321 147.101562 C 321 144.140625 318.941406 146.699219 317.222656 151.800781 L 315.300781 157.5 L 313.449219 151.75 C 312.421875 148.550781 311.132812 146.15625 310.550781 146.351562 C 309.984375 146.539062 308.921875 148.5 308.25 150.601562 C 307.578125 152.699219 306.722656 155.191406 306.398438 156 C 306.046875 156.890625 305.128906 155.300781 304.152344 152.101562 C 302.660156 147.199219 299.949219 143.878906 300.074219 147.101562 "/>
<path style=" stroke:none;fill-rule:nonzero;fill:rgb(0%,0%,0%);fill-opacity:1;" d="M 325.699219 148.058594 C 320.164062 152.40625 323.398438 161.398438 330.5 161.398438 C 337.5 161.398438 340.617188 153.515625 335.601562 148.5 C 332.5625 145.460938 329.199219 145.3125 325.699219 148.058594 Z M 334.460938 150.199219 C 335.300781 151.398438 336 153.21875 336 154.199219 C 336 156.398438 332.585938 160 330.5 160 C 328.28125 160 325 156.300781 325 153.800781 C 325 148.5 331.527344 146.015625 334.460938 150.199219 "/>
<path style=" stroke:none;fill-rule:nonzero;fill:rgb(0%,0%,0%);fill-opacity:1;" d="M 341.699219 146.6875 C 340.621094 147.757812 340.898438 161 342 161 C 342.550781 161 343 160.101562 343 159 C 343 155.699219 346.007812 155.296875 348.214844 158.300781 C 349.316406 159.800781 350.890625 161 351.75 161 C 353.035156 161 352.984375 160.648438 351.449219 158.949219 C 349.664062 156.96875 349.660156 156.800781 351.3125 154 C 353.199219 150.800781 352.421875 147.796875 349.398438 146.628906 C 347.300781 145.816406 342.539062 145.851562 341.699219 146.6875 Z M 349.5 151 C 349.5 153.078125 348.949219 153.550781 346.25 153.800781 C 343.449219 154.058594 343 153.769531 343 151.699219 C 343 148.601562 343.898438 147.8125 347 148.191406 C 348.898438 148.425781 349.5 149.101562 349.5 151 "/>
<path style=" stroke:none;fill-rule:nonzero;fill:rgb(0%,0%,0%);fill-opacity:1;" d="M 356 153.5 L 356 161 L 361.25 160.851562 C 366.351562 160.703125 366.386719 160.683594 362.5 160.101562 L 358.5 159.5 L 358.203125 152.699219 C 357.800781 143.546875 356 144.199219 356 153.5 "/>
<path style=" stroke:none;fill-rule:nonzero;fill:rgb(0%,0%,0%);fill-opacity:1;" d="M 368.699219 146.601562 C 368.3125 146.988281 368 150.351562 368 154.148438 L 368 161 L 372.5 161 C 380 161 383.660156 154.542969 379.242188 149.101562 C 377.457031 146.898438 370.136719 145.164062 368.699219 146.601562 Z M 377 150 C 380.675781 153.675781 378.898438 159 374 159 C 371.054688 159 371 158.898438 371 153.5 C 371 148.699219 371.253906 148 373 148 C 374.101562 148 375.898438 148.898438 377 150 "/>
<path style=" stroke:none;fill-rule:nonzero;fill:rgb(0%,0%,0%);fill-opacity:1;" d="M 390.699219 146.601562 C 390.3125 146.988281 390 150.351562 390 154.148438 C 390 159.75 390.28125 161 391.550781 161 C 392.675781 161 393.019531 160.25 392.800781 158.25 C 392.53125 155.796875 392.851562 155.46875 395.75 155.199219 C 397.550781 155.035156 399 154.5 399 154 C 399 153.5 397.550781 152.964844 395.75 152.800781 C 393.25 152.570312 392.5 152.039062 392.5 150.5 C 392.5 148.898438 393.25 148.441406 396.25 148.199219 C 398.351562 148.03125 400 147.503906 400 147 C 400 145.898438 391.753906 145.546875 390.699219 146.601562 "/>
<path style=" stroke:none;fill-rule:nonzero;fill:rgb(0%,0%,0%);fill-opacity:1;" d="M 403 153.5 L 403 161 L 408.050781 161 C 411.148438 161 412.867188 160.613281 412.5 160 C 412.171875 159.449219 410.351562 159 408.449219 159 C 405.648438 159 405 158.621094 405 157 C 405 155.398438 405.699219 155 408.5 155 C 410.398438 155 412 154.542969 412 154 C 412 153.457031 410.398438 153 408.5 153 C 405.398438 153 405 152.714844 405 150.5 C 405 148.214844 405.351562 148 409.050781 148 C 411.449219 148 412.855469 147.59375 412.5 147 C 412.175781 146.460938 409.851562 146 407.449219 146 L 403 146 L 403 153.5 "/>
<path style=" stroke:none;fill-rule:nonzero;fill:rgb(0%,0%,0%);fill-opacity:1;" d="M 415.699219 146.601562 C 415.3125 146.988281 415 150.351562 415 154.148438 L 415 161 L 419.5 161 C 427 161 430.660156 154.542969 426.242188 149.101562 C 424.457031 146.898438 417.136719 145.164062 415.699219 146.601562 Z M 424 150 C 427.675781 153.675781 425.898438 159 421 159 C 418.054688 159 418 158.898438 418 153.5 C 418 148.699219 418.253906 148 420 148 C 421.101562 148 422.898438 148.898438 424 150 "/>
<path style=" stroke:none;fill-rule:nonzero;fill:rgb(0%,0%,0%);fill-opacity:1;" d="M 431 153.5 L 431 161 L 436.050781 161 C 439.351562 161 440.875 160.636719 440.449219 159.949219 C 440.097656 159.382812 438.351562 159.039062 436.648438 159.199219 C 434.050781 159.449219 433.449219 159.105469 433.199219 157.25 C 432.933594 155.25 433.300781 155 436.5 155 C 440.898438 155 441.0625 153.230469 436.699219 152.808594 C 434.300781 152.578125 433.5 152 433.5 150.5 C 433.5 148.933594 434.300781 148.433594 437.199219 148.195312 C 442.75 147.734375 441.800781 146 436 146 L 431 146 L 431 153.5 "/>
<path style=" stroke:none;fill-rule:nonzero;fill:rgb(0%,0%,0%);fill-opacity:1;" d="M 444 153.5 C 444 157.800781 444.425781 161 445 161 C 445.558594 161 446 159.898438 446 158.5 C 446 155.109375 448.398438 155.199219 451.398438 158.699219 C 452.6875 160.199219 454.148438 161.152344 454.550781 160.75 C 454.953125 160.34375 454.519531 159.148438 453.601562 158.148438 C 452.039062 156.449219 452.019531 156.199219 453.398438 155.066406 C 455.683594 153.191406 455.5 148.335938 453.101562 147.0625 C 451.972656 146.464844 449.550781 146 447.550781 146 L 444 146 Z M 451.898438 148.878906 C 454.390625 150.441406 452.800781 153.4375 449.300781 153.777344 C 446.199219 154.082031 446 153.914062 446 151.050781 C 446 148.550781 446.40625 148 448.25 148 C 449.449219 148 451.152344 148.410156 451.898438 148.878906 "/>
<path style=" stroke:none;fill-rule:nonzero;fill:rgb(0%,0%,0%);fill-opacity:1;" d="M 463.359375 147.699219 C 462.992188 148.699219 461.660156 151.898438 460.363281 154.898438 C 458.027344 160.300781 458.050781 163.066406 460.402344 159.800781 C 461.1875 158.710938 463 158 465 158 C 467 158 468.792969 158.667969 469.550781 159.699219 C 472.175781 163.265625 471.960938 160 469.136719 153.398438 C 466.054688 146.199219 464.480469 144.644531 463.359375 147.699219 Z M 466.699219 153 C 467.761719 155.898438 467.707031 156 465 156 C 462.292969 156 462.238281 155.898438 463.300781 153 C 463.921875 151.300781 464.660156 150 465 150 C 465.339844 150 466.078125 151.300781 466.699219 153 "/>
<path style=" stroke:none;fill-rule:nonzero;fill:rgb(0%,0%,0%);fill-opacity:1;" d="M 471.554688 147 C 471.253906 147.492188 472.25 148.035156 473.75 148.199219 C 476.367188 148.484375 476.515625 148.800781 476.800781 154.800781 C 477.191406 163.046875 479 162.800781 479 154.5 C 479 148.199219 479.078125 148 481.5 148 C 482.898438 148 484 147.558594 484 147 C 484 145.699219 472.355469 145.699219 471.554688 147 "/>
<path style=" stroke:none;fill-rule:nonzero;fill:rgb(0%,0%,0%);fill-opacity:1;" d="M 487 153.5 C 487 157.800781 487.425781 161 488 161 C 488.574219 161 489 157.800781 489 153.5 C 489 149.199219 488.574219 146 488 146 C 487.425781 146 487 149.199219 487 153.5 "/>
<path style=" stroke:none;fill-rule:nonzero;fill:rgb(0%,0%,0%);fill-opacity:1;" d="M 494.5 148.398438 C 489.535156 153.367188 492.5 161.398438 499.300781 161.398438 C 504.101562 161.398438 507 158.652344 507 154.101562 C 507 150 506.351562 148.753906 503.398438 147.175781 C 500 145.355469 497.152344 145.746094 494.5 148.398438 Z M 503.484375 149.601562 C 507.6875 153.816406 502.898438 161.6875 497.601562 159.277344 C 494.5 157.863281 493.472656 153.5 495.511719 150.398438 C 497.355469 147.601562 501.113281 147.222656 503.484375 149.601562 "/>
<path style=" stroke:none;fill-rule:nonzero;fill:rgb(0%,0%,0%);fill-opacity:1;" d="M 510.699219 146.601562 C 510.3125 146.988281 510 150.351562 510 154.148438 C 510 159.449219 510.328125 161 511.449219 161 C 512.457031 161 512.992188 159.550781 513.199219 156.25 L 513.5 151.5 L 516.46875 156.199219 C 520.898438 163.210938 522.527344 162.601562 522.34375 154 C 522.167969 146 520.746094 144.601562 520.003906 151.699219 L 519.5 156.5 L 516.105469 151.199219 C 512.839844 146.101562 511.953125 145.34375 510.699219 146.601562 "/>
<path style=" stroke:none;fill-rule:nonzero;fill:rgb(0%,0%,0%);fill-opacity:1;" d="M 535.5 147.214844 C 532.644531 148.835938 532 150.101562 532 154.101562 C 532 158.652344 534.898438 161.398438 539.699219 161.398438 C 542.199219 161.398438 543.867188 160.699219 545.160156 159.101562 C 550.550781 152.425781 542.898438 143.011719 535.5 147.214844 Z M 543.574219 150.5 C 547.117188 155.898438 541.753906 162.0625 536.5 158.632812 C 534.777344 157.507812 534 156.101562 534 154.101562 C 534 148.199219 540.472656 145.765625 543.574219 150.5 "/>
<path style=" stroke:none;fill-rule:nonzero;fill:rgb(0%,0%,0%);fill-opacity:1;" d="M 550 153.5 C 550 157.800781 550.425781 161 551 161 C 551.566406 161 552 159.699219 552 158 C 552 155.257812 552.300781 155 555.5 155 C 557.398438 155 559 154.542969 559 154 C 559 153.457031 557.398438 153 555.5 153 C 552.398438 153 552 152.714844 552 150.5 C 552 148.214844 552.351562 148 556.050781 148 C 558.449219 148 559.855469 147.59375 559.5 147 C 559.175781 146.460938 556.851562 146 554.449219 146 L 550 146 L 550 153.5 "/>
<path style=" stroke:none;fill-rule:nonzero;fill:rgb(0%,0%,0%);fill-opacity:1;" d="M 569.898438 147.882812 C 566.769531 150.472656 568.199219 153.0625 573.601562 154.589844 C 578.199219 155.886719 579.363281 158.644531 575.699219 159.570312 C 574.300781 159.921875 572.296875 159.714844 571.148438 159.101562 C 569.75 158.347656 568.90625 158.316406 568.492188 159 C 567.480469 160.671875 573.101562 162.265625 576.5 161.273438 C 579 160.546875 579.5 159.90625 579.5 157.449219 C 579.5 154.84375 579 154.34375 575.199219 153.148438 C 572.101562 152.175781 570.996094 151.339844 571.25 150.148438 C 571.507812 148.933594 572.601562 148.53125 575.398438 148.617188 C 579.886719 148.753906 579.800781 146.644531 575.300781 146.199219 C 573.398438 146.007812 571.421875 146.628906 569.898438 147.882812 "/>
<path style=" stroke:none;fill-rule:nonzero;fill:rgb(0%,0%,0%);fill-opacity:1;" d="M 585.601562 148.085938 C 583.617188 149.621094 583 151 583 153.898438 C 583 158.671875 585.800781 161.398438 590.699219 161.398438 C 597.5 161.398438 600.527344 153.429688 595.601562 148.5 C 592.617188 145.519531 589.101562 145.371094 585.601562 148.085938 Z M 594.601562 150.5 C 598.136719 155.898438 592.753906 162.039062 587.5 158.597656 C 584.5 156.636719 584.128906 152.636719 586.679688 149.800781 C 589.035156 147.179688 592.636719 147.5 594.601562 150.5 "/>
<path style=" stroke:none;fill-rule:nonzero;fill:rgb(0%,0%,0%);fill-opacity:1;" d="M 604.5 147.222656 C 601.644531 148.835938 601 150.101562 601 154.101562 C 601 159.898438 607.414062 163.820312 611.5 160.515625 C 613.429688 158.957031 613.398438 158.921875 610.601562 159.507812 C 606.601562 160.34375 603 157.738281 603 154 C 603 150 605.5625 147.625 609.101562 148.347656 C 612.101562 148.964844 613.921875 147.617188 611.398438 146.644531 C 609.101562 145.761719 606.734375 145.960938 604.5 147.222656 "/>
<path style=" stroke:none;fill-rule:nonzero;fill:rgb(0%,0%,0%);fill-opacity:1;" d="M 616 153.5 C 616 157.800781 616.425781 161 617 161 C 617.574219 161 618 157.800781 618 153.5 C 618 149.199219 617.574219 146 617 146 C 616.425781 146 616 149.199219 616 153.5 "/>
<path style=" stroke:none;fill-rule:nonzero;fill:rgb(0%,0%,0%);fill-opacity:1;" d="M 622 153.5 L 622 161 L 627.050781 161 C 630.148438 161 631.867188 160.613281 631.5 160 C 631.171875 159.449219 629.351562 159 627.449219 159 C 624.648438 159 624 158.621094 624 157 C 624 155.398438 624.699219 155 627.5 155 C 629.398438 155 631 154.542969 631 154 C 631 153.457031 629.398438 153 627.5 153 C 624.398438 153 624 152.714844 624 150.5 C 624 148.214844 624.351562 148 628.050781 148 C 630.449219 148 631.855469 147.59375 631.5 147 C 631.175781 146.460938 628.851562 146 626.449219 146 L 622 146 L 622 153.5 "/>
<path style=" stroke:none;fill-rule:nonzero;fill:rgb(0%,0%,0%);fill-opacity:1;" d="M 633.5 147 C 633.144531 147.589844 634.148438 148 635.949219 148 L 639 148 L 639 154.5 C 639 158.199219 639.429688 161 640 161 C 640.570312 161 641 158.199219 641 154.5 C 641 148.199219 641.078125 148 643.5 148 C 644.898438 148 646 147.558594 646 147 C 646 146.445312 643.351562 146 640.050781 146 C 636.75 146 633.832031 146.445312 633.5 147 "/>
<path style=" stroke:none;fill-rule:nonzero;fill:rgb(0%,0%,0%);fill-opacity:1;" d="M 649 153.5 C 649 157.800781 649.425781 161 650 161 C 650.574219 161 651 157.800781 651 153.5 C 651 149.199219 650.574219 146 650 146 C 649.425781 146 649 149.199219 649 153.5 "/>
<path style=" stroke:none;fill-rule:nonzero;fill:rgb(0%,0%,0%);fill-opacity:1;" d="M 655 153.5 L 655 161 L 660.050781 161 C 663.148438 161 664.867188 160.613281 664.5 160 C 664.171875 159.449219 662.351562 159 660.449219 159 C 657.648438 159 657 158.621094 657 157 C 657 155.398438 657.699219 155 660.5 155 C 662.398438 155 664 154.542969 664 154 C 664 153.457031 662.398438 153 660.5 153 C 657.398438 153 657 152.714844 657 150.5 C 657 148.214844 657.351562 148 661.050781 148 C 663.449219 148 664.855469 147.59375 664.5 147 C 664.175781 146.460938 661.851562 146 659.449219 146 L 655 146 L 655 153.5 "/>
<path style=" stroke:none;fill-rule:nonzero;fill:rgb(0%,0%,0%);fill-opacity:1;" d="M 668.898438 147.949219 C 665.839844 150.441406 667.199219 153.058594 672.300781 154.496094 C 676.898438 155.789062 677.601562 156.582031 675.925781 158.601562 C 674.640625 160.148438 672.5 160.125 668.699219 158.519531 C 667.699219 158.09375 667 158.253906 667 158.898438 C 667 160.953125 672 162.132812 675.601562 160.933594 C 678.199219 160.066406 679 159.234375 679 157.398438 C 679 154.964844 678.800781 154.824219 671.199219 151.917969 C 669.199219 151.152344 669.015625 150.734375 670.101562 149.398438 C 671.007812 148.285156 672.398438 147.964844 674.699219 148.339844 C 678.101562 148.894531 679.265625 147.71875 676.398438 146.625 C 673.601562 145.558594 671.351562 145.953125 668.898438 147.949219 "/>
<path style=" stroke:none;fill-rule:nonzero;fill:rgb(0%,0%,0%);fill-opacity:1;" d="M 690.699219 148.058594 C 685.164062 152.40625 688.398438 161.398438 695.5 161.398438 C 702.5 161.398438 705.617188 153.515625 700.601562 148.5 C 697.5625 145.460938 694.199219 145.3125 690.699219 148.058594 Z M 699.460938 150.199219 C 700.300781 151.398438 701 153.21875 701 154.199219 C 701 156.398438 697.585938 160 695.5 160 C 693.28125 160 690 156.300781 690 153.800781 C 690 148.5 696.527344 146.015625 699.460938 150.199219 "/>
<path style=" stroke:none;fill-rule:nonzero;fill:rgb(0%,0%,0%);fill-opacity:1;" d="M 706 153.5 C 706 157.800781 706.425781 161 707 161 C 707.566406 161 708 159.699219 708 158 C 708 155.257812 708.300781 155 711.5 155 C 715.898438 155 716.0625 153.230469 711.699219 152.808594 C 709.300781 152.578125 708.5 152 708.5 150.5 C 708.5 148.921875 709.300781 148.433594 712.300781 148.1875 C 717.433594 147.761719 715.898438 146 710.398438 146 L 706 146 L 706 153.5 "/>
<path style=" stroke:none;fill-rule:nonzero;fill:rgb(0%,0%,0%);fill-opacity:1;" d="M 405.5 170.082031 C 401.800781 171.171875 400 173.46875 400 177.101562 C 400 180.648438 401.800781 181.964844 409.300781 183.898438 C 414.800781 185.320312 415.535156 185.804688 415.804688 188.199219 C 416.246094 192.140625 412.601562 192.816406 401.601562 190.84375 C 398.355469 190.261719 398.800781 192.675781 402.199219 194.101562 C 406.601562 195.953125 414.199219 195.738281 417.398438 193.675781 C 419.3125 192.445312 420 191.101562 420 188.601562 C 420 184.742188 417.898438 182.433594 413.5 181.457031 C 405.101562 179.589844 403.851562 178.882812 404.1875 176.199219 C 404.574219 173.089844 408.898438 171.601562 413.699219 172.917969 C 416 173.550781 417.210938 173.421875 418 172.449219 C 418.867188 171.382812 418.300781 170.882812 415.300781 170.074219 C 410.898438 168.890625 409.554688 168.890625 405.5 170.082031 "/>
<path style=" stroke:none;fill-rule:nonzero;fill:rgb(0%,0%,0%);fill-opacity:1;" d="M 502.300781 170.410156 C 500.5 171.222656 498.460938 173.082031 497.8125 174.5 C 495.878906 178.738281 499.199219 182.136719 507.101562 183.992188 C 512.199219 185.195312 513.558594 185.925781 513.789062 187.601562 C 514.359375 191.742188 510.101562 192.710938 499.5 190.851562 C 495.75 190.195312 497.398438 193.484375 501.5 194.839844 C 509.5 197.488281 518 193.859375 518 187.800781 C 518 184.324219 513.898438 181.492188 507.5 180.539062 C 505.101562 180.183594 502.683594 179.28125 502.027344 178.5 C 499.003906 174.890625 504.699219 171.320312 510.800781 173.007812 C 513.199219 173.667969 514.734375 173.667969 515.398438 173 C 518.273438 170.128906 507.601562 168.019531 502.300781 170.410156 "/>
<path style=" stroke:none;fill-rule:nonzero;fill:rgb(0%,0%,0%);fill-opacity:1;" d="M 540.101562 170.265625 C 534.980469 172.109375 532.5 176.101562 532.5 182.5 C 532.5 189.101562 535.035156 192.890625 540.800781 194.921875 C 544.5 196.222656 545.5 196.226562 549.199219 194.945312 C 554.59375 193.078125 558 188.300781 558 182.601562 C 558 178.199219 555.285156 172.75 552.300781 171.152344 C 549.023438 169.402344 543.601562 169.007812 540.101562 170.265625 Z M 551.601562 175.5 C 554.832031 178.734375 554.996094 185.5 551.9375 189.398438 C 550.261719 191.539062 549.101562 192 545.398438 192 C 539.164062 192 536 188.800781 536 182.5 C 536 176.300781 539.125 173 545 173 C 548 173 549.769531 173.671875 551.601562 175.5 "/>
<path style=" stroke:none;fill-rule:nonzero;fill:rgb(0%,0%,0%);fill-opacity:1;" d="M 589.398438 170.429688 C 584.328125 172.601562 582 176.398438 582 182.5 C 582 186.699219 582.523438 188.421875 584.515625 190.800781 C 591.433594 199.058594 603.976562 196.5 607.066406 186.199219 C 608.128906 182.671875 608.054688 181.449219 606.550781 177.449219 C 605.121094 173.648438 604.050781 172.460938 600.699219 170.953125 C 595.800781 168.742188 593.578125 168.636719 589.398438 170.429688 Z M 600.835938 175.300781 C 603.65625 178.335938 604.433594 182.300781 603.03125 186.5 C 601.652344 190.644531 599.5 192 594.300781 192 C 588.777344 192 585.699219 188.601562 585.699219 182.5 C 585.699219 176.300781 588.757812 173 594.5 173 C 597.601562 173 599.257812 173.601562 600.835938 175.300781 "/>
<path style=" stroke:none;fill-rule:nonzero;fill:rgb(0%,0%,0%);fill-opacity:1;" d="M 620 170.289062 C 612.800781 172.84375 609.730469 182.796875 613.980469 189.800781 C 617.648438 195.839844 626.398438 197.609375 632.601562 193.566406 C 634.652344 192.226562 635 191.199219 635 186.5 L 635 181 L 630 181 C 626.199219 181 625 181.359375 625 182.5 C 625 183.527344 626.101562 184 628.5 184 C 631.699219 184 632 184.257812 632 187 C 632 192.398438 622.960938 194.0625 618.398438 189.5 C 614.898438 186 615 178.898438 618.601562 175.300781 C 621.140625 172.757812 623.101562 172.582031 631.398438 174.144531 C 632.398438 174.332031 633.5 173.929688 633.722656 173.300781 C 634.71875 170.476562 625.300781 168.410156 620 170.289062 "/>
<path style=" stroke:none;fill-rule:nonzero;fill:rgb(0%,0%,0%);fill-opacity:1;" d="M 657.300781 169.820312 C 653.5 171.015625 651 173.863281 651 177 C 651 180.578125 653.898438 182.839844 659.601562 183.707031 C 661.699219 184.027344 664.332031 184.726562 665.300781 185.21875 C 667.5 186.34375 667.570312 190.605469 665.398438 191.433594 C 662.898438 192.386719 655.976562 192.078125 653.800781 190.914062 C 651.199219 189.523438 648.597656 191.480469 651 193.019531 C 653.816406 194.824219 660.398438 196.140625 663.601562 195.539062 C 673.199219 193.734375 674.015625 183.359375 664.699219 181.519531 C 657.101562 180.015625 655 178.929688 655 176.5 C 655 173.363281 660.101562 171.585938 665 173.011719 C 667.5 173.738281 668.597656 173.667969 669.148438 172.75 C 669.554688 172.078125 669.300781 171.167969 668.601562 170.78125 C 666.554688 169.648438 659.699219 169.0625 657.300781 169.820312 "/>
<path style=" stroke:none;fill-rule:nonzero;fill:rgb(0%,0%,0%);fill-opacity:1;" d="M 705 170.085938 C 695.890625 173.894531 697.398438 182.039062 707.5 183.574219 C 713.5 184.484375 716.976562 187.175781 715.414062 189.699219 C 714.546875 191.101562 713.101562 191.476562 708.898438 191.398438 C 705.898438 191.34375 702.609375 191.128906 701.5 190.914062 C 697.457031 190.136719 699.398438 193.457031 703.800781 194.847656 C 709.199219 196.554688 714.433594 195.664062 717.601562 192.5 C 722.460938 187.640625 719.601562 182.890625 710.699219 181.042969 C 707.699219 180.417969 704.667969 179.265625 704.027344 178.5 C 701.019531 174.910156 706.800781 171.339844 712.898438 173.019531 C 716.699219 174.066406 719.300781 172.898438 717.398438 171 C 715.914062 169.515625 707.800781 168.914062 705 170.085938 "/>
<path style=" stroke:none;fill-rule:nonzero;fill:rgb(0%,0%,0%);fill-opacity:1;" d="M 305.71875 170.699219 C 304.933594 172 296 193.878906 296 194.5 C 296 194.761719 296.898438 195 297.898438 195 C 299.105469 195 300.183594 193.898438 300.851562 192 C 301.855469 189.125 302.148438 189 307.851562 189 C 313.550781 189 313.851562 189.125 315 192 C 315.71875 193.800781 316.960938 195 318.101562 195 C 319.101562 195 320 194.835938 320 194.648438 C 320 194.460938 317.777344 188.898438 315.101562 182.398438 C 311.394531 173.398438 309.714844 170.425781 308.199219 170.199219 C 307.101562 170.035156 305.984375 170.261719 305.71875 170.699219 Z M 310.300781 179.75 C 311.230469 182.351562 312 184.839844 312 185.25 C 312 185.660156 310 186 307.601562 186 L 303.199219 186 L 305.351562 180.5 C 306.523438 177.5 307.75 175 308.050781 175 C 308.351562 175 309.371094 177.148438 310.300781 179.75 "/>
<path style=" stroke:none;fill-rule:nonzero;fill:rgb(0%,0%,0%);fill-opacity:1;" d="M 324 182.5 C 324 194.300781 324.113281 195 326 195 C 327.835938 195 328 194.300781 328 186.5 C 328 181.800781 328.335938 178 328.75 178 C 329.164062 178 331.960938 181.800781 335 186.5 C 339.207031 193 341.027344 195 342.75 195 C 344.964844 195 345 194.800781 345 182.5 C 345 170.699219 344.890625 170 343.050781 170 C 341.292969 170 341.070312 170.851562 340.800781 178.648438 L 340.5 187.300781 L 334.75 178.648438 C 330.097656 171.648438 328.523438 170 326.5 170 L 324 170 L 324 182.5 "/>
<path style=" stroke:none;fill-rule:nonzero;fill:rgb(0%,0%,0%);fill-opacity:1;" d="M 354.75 181.75 C 352.121094 188.25 350 193.835938 350 194.25 C 350 194.667969 350.800781 195 351.800781 195 C 352.878906 195 354.039062 193.800781 354.699219 192 C 355.746094 189.148438 356.101562 189 361.800781 189 C 367.601562 189 367.835938 189.101562 368.851562 192 C 369.550781 194 370.582031 195 371.949219 195 C 374 195 374 195 372.097656 190.199219 C 365.367188 173.199219 363.703125 170 361.601562 170 C 359.847656 170 358.710938 171.949219 354.75 181.75 Z M 364.449219 180.5 C 365.402344 183 365.972656 185.328125 365.699219 185.601562 C 365.421875 185.878906 363.449219 185.96875 361.25 185.800781 L 357.300781 185.5 L 359.300781 180.25 C 360.40625 177.351562 361.613281 175.203125 362 175.449219 C 362.378906 175.695312 363.5 178 364.449219 180.5 "/>
<path style=" stroke:none;fill-rule:nonzero;fill:rgb(0%,0%,0%);fill-opacity:1;" d="M 379 182.5 L 379 195 L 387 195 C 393.398438 195 395 194.699219 395 193.5 C 395 192.324219 393.601562 192 388.5 192 L 382 192 L 382 184 L 388 184 C 392.601562 184 394 183.660156 394 182.550781 C 394 181.492188 392.449219 181.019531 388.25 180.800781 L 382.5 180.5 L 381.898438 173 L 388.449219 173 C 393.648438 173 395 172.691406 395 171.5 C 395 170.300781 393.398438 170 387 170 L 379 170 L 379 182.5 "/>
<path style=" stroke:none;fill-rule:nonzero;fill:rgb(0%,0%,0%);fill-opacity:1;" d="M 423 171.5 C 423 172.601562 424.199219 173 427.5 173 L 432 173 L 432 184 C 432 194.300781 432.128906 195 434 195 C 435.871094 195 436 194.300781 436 184 L 436 173 L 440.5 173 C 443.800781 173 445 172.601562 445 171.5 C 445 170.257812 443.101562 170 434 170 C 424.898438 170 423 170.257812 423 171.5 "/>
<path style=" stroke:none;fill-rule:nonzero;fill:rgb(0%,0%,0%);fill-opacity:1;" d="M 449 182.5 C 449 194.300781 449.113281 195 451 195 C 452.746094 195 453 194.300781 453 189.5 L 453 184 L 466 184 L 466 189.5 C 466 194.300781 466.253906 195 468 195 C 469.886719 195 470 194.300781 470 182.5 C 470 170.699219 469.886719 170 468 170 C 466.253906 170 466 170.699219 466 175.5 L 466 181 L 453 181 L 453 175.5 C 453 170.699219 452.746094 170 451 170 C 449.113281 170 449 170.699219 449 182.5 "/>
<path style=" stroke:none;fill-rule:nonzero;fill:rgb(0%,0%,0%);fill-opacity:1;" d="M 476 182.5 L 476 195 L 484.5 195 C 491.398438 195 493 194.71875 493 193.5 C 493 192.324219 491.601562 192 486.5 192 L 480 192 L 480 184 L 486 184 C 490.601562 184 492 183.660156 492 182.550781 C 492 181.492188 490.449219 181.019531 486.25 180.800781 L 480.5 180.5 L 479.898438 173 L 486.449219 173 C 491.648438 173 493 172.691406 493 171.5 C 493 170.28125 491.398438 170 484.5 170 L 476 170 L 476 182.5 "/>
<path style=" stroke:none;fill-rule:nonzero;fill:rgb(0%,0%,0%);fill-opacity:1;" d="M 523 182.5 C 523 194.300781 523.113281 195 525 195 C 526.886719 195 527 194.300781 527 182.5 C 527 170.699219 526.886719 170 525 170 C 523.113281 170 523 170.699219 523 182.5 "/>
<path style=" stroke:none;fill-rule:nonzero;fill:rgb(0%,0%,0%);fill-opacity:1;" d="M 563 182.5 L 563 195 L 571.5 195 C 578.398438 195 580 194.71875 580 193.5 C 580 192.324219 578.601562 192 573.5 192 L 567 192 L 567 181 C 567 170.699219 566.871094 170 565 170 C 563.113281 170 563 170.699219 563 182.5 "/>
<path style=" stroke:none;fill-rule:nonzero;fill:rgb(0%,0%,0%);fill-opacity:1;" d="M 641 182.5 C 641 194.300781 641.113281 195 643 195 C 644.886719 195 645 194.300781 645 182.5 C 645 170.699219 644.886719 170 643 170 C 641.113281 170 641 170.699219 641 182.5 "/>
<path style=" stroke:none;fill-rule:nonzero;fill:rgb(0%,0%,0%);fill-opacity:1;" d="M 674 171.5 C 674 172.601562 675.199219 173 678.5 173 L 683 173 L 683 184 C 683 194.300781 683.128906 195 685 195 C 686.871094 195 687 194.300781 687 184 L 687 173 L 691.5 173 C 694.800781 173 696 172.601562 696 171.5 C 696 170.257812 694.101562 170 685 170 C 675.898438 170 674 170.257812 674 171.5 "/>
<path style=" stroke:none;fill-rule:nonzero;fill:rgb(0%,0%,0%);fill-opacity:1;" d="M 1 177.601562 C 1 177.933594 3.882812 181.351562 7.449219 185.25 L 13.898438 192.300781 L 9 198 C 6.335938 201.101562 3.394531 204.269531 2.550781 204.949219 C 1.648438 205.675781 1 206.578125 1 207.101562 C 1 207.601562 18.148438 207.976562 39.75 207.949219 L 78.5 207.898438 L 73 205.601562 C 58.398438 199.5 45.765625 191.390625 37.015625 182.5 L 31.601562 177 L 16.300781 177 C 7.898438 177 1 177.269531 1 177.601562 "/>
<path style=" stroke:none;fill-rule:nonzero;fill:rgb(0%,0%,0%);fill-opacity:1;" d="M 208.800781 182.460938 C 198.429688 192.21875 184.898438 200.710938 171.199219 206.0625 L 166.5 207.898438 L 205.851562 207.949219 L 245.199219 208 L 238.601562 200.648438 C 235.007812 196.648438 232 192.957031 232 192.550781 C 232 192.140625 234.734375 188.699219 238 185 C 241.265625 181.300781 244 177.925781 244 177.601562 C 244 177.269531 237.351562 177.023438 229.25 177.050781 L 214.5 177.101562 L 208.800781 182.460938 "/>
<path style=" stroke:none;fill-rule:nonzero;fill:rgb(0%,0%,0%);fill-opacity:1;" d="M 88.199219 19.199219 C 87.554688 19.847656 87 21 87 21.699219 C 87 24.101562 89.953125 29 91.398438 29 C 93.648438 29 94.253906 25.398438 92.5625 22.101562 C 90.664062 18.398438 89.664062 17.734375 88.199219 19.199219 "/>
<path style=" stroke:none;fill-rule:nonzero;fill:rgb(0%,0%,0%);fill-opacity:1;" d="M 164.761719 24.800781 C 162.699219 27.199219 161.917969 29.667969 162.636719 31.5 C 163.578125 33.898438 165.847656 33.199219 167.5 30 C 170.445312 24.300781 168.445312 20.503906 164.761719 24.800781 "/>
<path style=" stroke:none;fill-rule:nonzero;fill:rgb(0%,0%,0%);fill-opacity:1;" d="M 55 40.398438 C 55 42.898438 59.496094 47.332031 61.398438 46.710938 C 63.34375 46.074219 63.152344 43.5 60.957031 40.699219 C 58.214844 37.199219 55 37.039062 55 40.398438 "/>
<path style=" stroke:none;fill-rule:nonzero;fill:rgb(0%,0%,0%);fill-opacity:1;" d="M 186.699219 41.4375 C 185.398438 42.421875 185.234375 43.007812 186.101562 43.550781 C 187.15625 44.210938 188.949219 42.5 188.980469 40.800781 C 188.996094 39.796875 188.800781 39.851562 186.699219 41.4375 "/>
<path style=" stroke:none;fill-rule:nonzero;fill:rgb(0%,0%,0%);fill-opacity:1;" d="M 202.800781 58.648438 C 201.800781 58.898438 201 59.765625 201 60.601562 C 201 62.632812 202.355469 62.398438 204.523438 60 C 206.328125 58.003906 206.101562 57.824219 202.800781 58.648438 "/>
<path style=" stroke:none;fill-rule:nonzero;fill:rgb(0%,0%,0%);fill-opacity:1;" d="M 117.800781 65.550781 C 118.09375 67.050781 118.671875 67.730469 119.199219 67.199219 C 120.152344 66.25 119.300781 63 118.101562 63 C 117.660156 63 117.523438 64.148438 117.800781 65.550781 "/>
<path style=" stroke:none;fill-rule:nonzero;fill:rgb(0%,0%,0%);fill-opacity:1;" d="M 35.378906 63.199219 C 34.382812 64.8125 39.601562 69 42.601562 69 C 44.300781 69 45 68.445312 45 67.101562 C 45 63.5 37.152344 60.320312 35.378906 63.199219 "/>
<path style=" stroke:none;fill-rule:nonzero;fill:rgb(0%,0%,0%);fill-opacity:1;" d="M 29 89.898438 C 29 90.40625 29.699219 91.0625 30.601562 91.398438 C 32.800781 92.226562 33 92.148438 33 90.5 C 33 89.675781 32.101562 89 31 89 C 29.898438 89 29 89.40625 29 89.898438 "/>
<path style=" stroke:none;fill-rule:nonzero;fill:rgb(0%,0%,0%);fill-opacity:1;" d="M 24.601562 100.699219 C 23.285156 102.015625 24.101562 103 26.5 103 C 28.101562 103 29 102.460938 29 101.5 C 29 100 25.867188 99.429688 24.601562 100.699219 "/>
<path style=" stroke:none;fill-rule:nonzero;fill:rgb(0%,0%,0%);fill-opacity:1;" d="M 170.800781 110.699219 C 171.5 110.96875 172.378906 110.921875 172.699219 110.601562 C 173.015625 110.285156 172.398438 110.046875 171.398438 110.101562 C 170.199219 110.164062 169.980469 110.382812 170.800781 110.699219 "/>
<path style=" stroke:none;fill-rule:nonzero;fill:rgb(0%,0%,0%);fill-opacity:1;" d="M 27.5 122.601562 C 24.707031 125.394531 25.699219 126.277344 30.800781 125.535156 C 36.601562 124.6875 37.121094 124.402344 36.375 122.5 C 35.601562 120.53125 29.5 120.601562 27.5 122.601562 "/>
<path style=" stroke:none;fill-rule:nonzero;fill:rgb(0%,0%,0%);fill-opacity:1;" d="M 191.398438 137.582031 C 189.542969 139.066406 189.550781 139.074219 191.75 138 C 192.949219 137.414062 194 136.667969 194 136.398438 C 194 135.671875 193.5 135.898438 191.398438 137.582031 "/>
<path style=" stroke:none;fill-rule:nonzero;fill:rgb(0%,0%,0%);fill-opacity:1;" d="M 206.441406 134.101562 C 204.59375 137.101562 213.179688 141.320312 215.800781 138.699219 C 216.992188 137.507812 216.800781 136.988281 214.5 135.195312 C 211.601562 132.9375 207.503906 132.378906 206.441406 134.101562 "/>
<path style=" stroke:none;fill-rule:nonzero;fill:rgb(0%,0%,0%);fill-opacity:1;" d="M 72.75 154.699219 C 73.449219 154.980469 74.550781 154.980469 75.25 154.699219 C 75.949219 154.417969 75.398438 154.199219 74 154.199219 C 72.601562 154.199219 72.050781 154.417969 72.75 154.699219 "/>
<path style=" stroke:none;fill-rule:nonzero;fill:rgb(0%,0%,0%);fill-opacity:1;" d="M 196.898438 152.046875 C 195.8125 152.710938 195.746094 153.300781 196.613281 154.699219 C 199.390625 159.199219 207.414062 160.53125 205.039062 156.101562 C 203.542969 153.300781 198.753906 150.914062 196.898438 152.046875 "/>
<path style=" stroke:none;fill-rule:nonzero;fill:rgb(0%,0%,0%);fill-opacity:1;" d="M 44.199219 154.605469 C 42.101562 156.066406 41.28125 158.980469 42.601562 160.300781 C 43.460938 161.160156 50.972656 155.800781 51.003906 154.300781 C 51.039062 152.539062 46.898438 152.726562 44.199219 154.605469 "/>
<path style=" stroke:none;fill-rule:nonzero;fill:rgb(0%,0%,0%);fill-opacity:1;" d="M 56.945312 172.601562 C 55.949219 173.800781 55.941406 174.339844 56.898438 175.300781 C 57.847656 176.246094 58.394531 176.101562 59.503906 174.601562 C 61.792969 171.5 59.402344 169.632812 56.945312 172.601562 "/>
<path style=" stroke:none;fill-rule:nonzero;fill:rgb(0%,0%,0%);fill-opacity:1;" d="M 68.132812 176.601562 C 65.378906 180.101562 65.320312 183 68 183 C 70.101562 183 74.296875 177.445312 73.664062 175.5 C 72.996094 173.441406 70.175781 174 68.132812 176.601562 "/>
</g>
</svg>
